<?xml version="1.0" encoding="UTF-8" standalone="no"?>
<svg
   viewBox="0 0 672.27 67.389999"
   fill="#000000"
   data-color-origin="#000000"
   data-color-type="fill"
   version="1.1"
   id="svg1"
   width="672.27002"
   height="67.389999"
   xmlns:inkscape="http://www.inkscape.org/namespaces/inkscape"
   xmlns:sodipodi="http://sodipodi.sourceforge.net/DTD/sodipodi-0.dtd"
   xmlns="http://www.w3.org/2000/svg"
   xmlns:svg="http://www.w3.org/2000/svg">
  <sodipodi:namedview
     id="namedview1"
     pagecolor="#ffffff"
     bordercolor="#000000"
     borderopacity="0.25"
     inkscape:showpageshadow="2"
     inkscape:pageopacity="0.0"
     inkscape:pagecheckerboard="0"
     inkscape:deskcolor="#d1d1d1" />
  <defs
     id="defs1" />
  <path
     fill="#000000"
     d="M 28.52,50.62 H 9.8 v -1.16 h 5.25 V 4.97 q -6.62,0 -9.79,2.16 v 0 Q 2.67,8.78 1.73,14.62 v 0 q -0.36,2.3 -0.57,6.33 v 0 H 0 L 0.72,3.82 h 36.15 l 0.72,17.13 H 36.44 Q 36.08,13.82 34.96,10.94 33.84,8.06 32.33,7.13 v 0 Q 29.16,4.97 22.54,4.97 v 0 44.49 h 5.98 z m 40.89,-3.6 q -4.17,5.04 -11.66,5.04 -7.49,0 -11.67,-5.04 -4.17,-5.04 -4.17,-12.96 0,-7.92 4.17,-12.96 4.18,-5.04 11.67,-5.04 7.49,0 11.66,5.04 4.18,5.04 4.18,12.96 0,7.92 -4.18,12.96 z m -2.95,-8.14 q 0.14,-2.09 0.14,-4.82 0,-2.74 -0.14,-4.83 -0.14,-2.09 -0.68,-4.46 -0.54,-2.38 -1.44,-3.93 -0.9,-1.54 -2.6,-2.55 -1.69,-1.01 -3.99,-1.01 -2.31,0 -4,1.01 -1.69,1.01 -2.59,2.55 -0.9,1.55 -1.44,3.93 -0.54,2.37 -0.68,4.46 -0.15,2.09 -0.15,4.83 0,2.73 0.15,4.82 0.14,2.09 0.68,4.46 0.54,2.38 1.44,3.93 0.9,1.55 2.59,2.55 1.69,1.01 4,1.01 2.3,0 3.99,-1.01 1.7,-1 2.6,-2.55 0.9,-1.55 1.44,-3.93 0.54,-2.37 0.68,-4.46 z m 28.3,-22.82 v 0 q 8.56,0 11.34,3.85 2.77,3.85 2.77,13.43 v 0 12.74 q 0,2.95 1.29,2.95 v 0 q 2.67,0 3.53,-8.28 v 0 l 1.3,0.15 q -1.08,11.16 -7.27,11.16 v 0 q -1.8,0 -2.78,-1.3 -0.97,-1.3 -1.22,-2.84 -0.25,-1.55 -0.25,-3.86 v 0 h -0.43 q -0.94,3.82 -3.82,5.91 -2.88,2.09 -7.38,2.09 -4.5,0 -7.88,-2.42 -3.39,-2.41 -3.39,-6.94 v 0 q 0,-3.39 1.95,-5.62 v 0 q 4.03,-4.61 18.28,-4.61 v 0 q 0.8,0 1.66,0 v 0 -3.53 q 0,-5.68 -1.94,-8.56 -1.95,-2.88 -6.74,-2.88 -4.78,0 -7.02,1.94 -2.23,1.94 -2.23,4.03 v 0 q 0,0.65 0.61,0.65 0.62,0 0.69,-0.65 v 0 q 0.43,-1.87 2.88,-1.87 v 0 q 1.58,0 2.52,1.12 0.93,1.11 0.93,2.73 0,1.62 -1.18,2.74 -1.19,1.11 -3.1,1.11 -1.91,0 -3.31,-1.47 -1.41,-1.48 -1.41,-3.64 v 0 q 0,-4.03 3.39,-6.08 3.38,-2.05 8.21,-2.05 z m 7.7,22.53 v 0 -4.82 q -0.72,0 -2.27,0 -1.55,0 -3.67,0.21 -2.12,0.22 -4.36,1.08 v 0 q -4.6,1.66 -4.6,7.35 v 0 q 0,3.45 1.65,5.54 1.66,2.09 5.33,2.09 3.67,0 5.8,-3.31 2.12,-3.31 2.12,-8.14 z m 51.05,10.95 v 1.08 h -11.16 v -6.56 h -0.43 q -1.3,3.68 -3.86,5.84 -2.55,2.16 -6.08,2.16 v 0 q -6.48,0 -9.61,-5.08 -3.13,-5.08 -3.13,-12.85 0,-7.78 3.24,-12.93 3.24,-5.14 9.93,-5.14 6.7,0 9.51,5.9 v 0 h 0.43 V 2.02 h -5.11 V 0.94 h 1.51 q 5.61,0 10.01,-0.94 V 0 49.54 Z M 142.49,34.13 v 0 -2.59 q 0,-5.62 -2.16,-9.54 -2.16,-3.93 -6.77,-3.93 v 0 q -4.96,0 -6.26,5.62 v 0 q -1.08,4.53 -1.08,9.07 0,4.54 0.25,6.91 0.25,2.38 0.94,4.93 0.68,2.56 2.3,4 1.62,1.44 3.89,1.44 2.27,0 4.03,-1.62 1.77,-1.62 2.77,-4.14 v 0 q 2.09,-5.11 2.09,-10.15 z m 30.75,-18.07 v 0 q 8.56,0 11.34,3.85 2.77,3.85 2.77,13.43 v 0 12.74 q 0,2.95 1.29,2.95 v 0 q 2.67,0 3.53,-8.28 v 0 l 1.3,0.15 q -1.08,11.16 -7.27,11.16 v 0 q -1.8,0 -2.78,-1.3 -0.97,-1.3 -1.22,-2.84 -0.25,-1.55 -0.25,-3.86 v 0 h -0.43 q -0.94,3.82 -3.82,5.91 -2.88,2.09 -7.38,2.09 -4.5,0 -7.88,-2.42 -3.39,-2.41 -3.39,-6.94 v 0 q 0,-3.39 1.95,-5.62 v 0 q 4.03,-4.61 18.28,-4.61 v 0 q 0.8,0 1.66,0 v 0 -3.53 q 0,-5.68 -1.94,-8.56 -1.95,-2.88 -6.74,-2.88 -4.78,0 -7.02,1.94 -2.23,1.94 -2.23,4.03 v 0 q 0,0.65 0.61,0.65 0.62,0 0.69,-0.65 v 0 q 0.43,-1.87 2.88,-1.87 v 0 q 1.58,0 2.52,1.12 0.93,1.11 0.93,2.73 0,1.62 -1.18,2.74 -1.19,1.11 -3.1,1.11 -1.91,0 -3.31,-1.47 -1.41,-1.48 -1.41,-3.64 v 0 q 0,-4.03 3.39,-6.08 3.38,-2.05 8.21,-2.05 z m 7.7,22.53 v 0 -4.82 q -0.72,0 -2.27,0 -1.55,0 -3.67,0.21 -2.12,0.22 -4.36,1.08 v 0 q -4.6,1.66 -4.6,7.35 v 0 q 0,3.45 1.65,5.54 1.66,2.09 5.33,2.09 3.67,0 5.8,-3.31 2.12,-3.31 2.12,-8.14 z M 207.72,0 v 49.54 h 4.76 v 1.08 h -15.92 v -1.08 h 4.76 V 2.02 H 196.2 V 0.94 h 1.52 q 5.61,0 10,-0.94 z m 20.96,0 v 49.54 h 4.75 v 1.08 h -15.91 v -1.08 h 4.75 V 2.02 h -5.11 V 0.94 h 1.51 q 5.61,0 10.01,-0.94 z m 26.2,67.39 v 0 q -3.6,0 -5.76,-2.55 -2.16,-2.56 -2.16,-6.59 v 0 q 0,-6.12 6.34,-10.73 v 0 l -0.07,-0.29 q -4.9,-0.29 -8.57,-6.69 -3.67,-6.41 -3.67,-17.93 v 0 -4.03 h -5.11 V 17.5 h 1.51 q 5.69,0 10.15,-0.94 v 0 4.39 q 0,10.15 2.41,16.38 2.41,6.23 6.95,6.23 v 0 q 3.24,0 6.77,-4.9 3.53,-4.89 3.53,-11.08 v 0 q 0,-3.53 -1.01,-6.23 -1.01,-2.7 -3.17,-3.57 v 0 q -0.72,-0.36 -1.66,-0.36 -0.93,0 -0.93,0.62 0,0.61 0.65,0.68 v 0 q 1.94,0.36 1.87,2.45 v 0 q 0,4.03 -3.75,4.03 v 0 q -1.72,0 -2.84,-1.22 -1.12,-1.23 -1.12,-3.21 0,-1.98 1.59,-3.35 1.58,-1.36 3.81,-1.36 v 0 q 4.04,0 5.94,3.16 1.91,3.17 1.91,8.07 v 0 q 0,11.59 -9.5,17.93 v 0 q -0.15,0.14 -1.51,1 -1.37,0.87 -1.7,1.12 -0.32,0.25 -1.54,1.12 -1.23,0.86 -1.62,1.29 -0.4,0.43 -1.34,1.33 -0.93,0.9 -1.29,1.55 -0.36,0.65 -0.87,1.59 v 0 q -0.86,1.58 -0.86,4.5 0,2.91 1.8,5.11 1.8,2.19 4.03,2.19 v 0 q 0.72,0 0.72,-0.57 0,-0.58 -0.65,-0.72 v 0 q -1.87,-0.43 -1.87,-2.88 v 0 q 0,-1.51 1.12,-2.49 1.11,-0.97 2.73,-0.97 1.62,0 2.74,1.19 1.12,1.19 1.12,3.06 0,1.87 -1.52,3.31 -1.51,1.44 -3.6,1.44 z m 68.55,-16.05 v 0 q -2.59,0 -4.18,-2.16 -1.58,-2.16 -1.58,-6.41 v 0 -4.75 q 0,-6.12 -2.41,-8.64 -2.42,-2.52 -7.6,-2.52 v 0 h -5.18 v 22.6 h 5.97 v 1.16 h -18.72 v -1.16 h 5.26 V 4.97 h -5.26 V 3.82 h 17.35 q 10.88,0 14.69,2.44 v 0 q 1.66,1.01 2.81,2.99 1.15,1.98 1.15,4.79 v 0 q 0,4.9 -2.88,8.1 -2.88,3.2 -8.42,3.92 v 0 0.36 q 6.62,0 8.75,3.17 2.12,3.17 2.12,10.8 v 0 3.31 q 0,2.6 0.36,3.57 0.36,0.97 1.26,0.97 0.9,0 1.87,-1.44 0.97,-1.44 1.62,-4.32 v 0 l 1.3,0.29 q -1.73,8.57 -8.28,8.57 z M 307.08,25.7 q 6.05,0 8.32,-2.34 2.27,-2.34 2.27,-8.56 0,-6.23 -2.63,-8.03 -2.63,-1.8 -8.96,-1.8 v 0 h -3.6 V 25.7 Z m 46.8,-9.64 v 0 q 5.4,0 9.04,2.3 3.64,2.3 3.64,6.91 v 0 q 0,7.13 -8.14,8.79 v 0 q -4.1,0.79 -10.22,0.79 v 0 h -3.39 v 2.09 q 0,5.83 2.41,9.46 2.42,3.64 7.06,3.64 4.64,0 7.27,-2.74 2.63,-2.73 3.71,-7.05 v 0 l 1.3,0.14 q -1.16,5.26 -4.65,8.46 -3.49,3.21 -8.82,3.21 v 0 q -7.49,0 -11.37,-4.94 -3.89,-4.93 -3.89,-13.06 0,-8.14 4.17,-13.07 4.18,-4.93 11.88,-4.93 z m -9.07,15.48 v 2.01 h 2.52 q 5.83,0 8.17,-1.15 2.34,-1.15 3.21,-2.84 0.86,-1.7 0.86,-4.79 0,-3.1 -1.55,-5.29 -1.54,-2.2 -4.71,-2.2 -3.17,0 -5.15,2.27 -1.98,2.27 -2.66,5.29 -0.69,3.02 -0.69,6.7 z m 41.83,-15.48 v 0 q 8.57,0 11.34,3.85 2.78,3.85 2.78,13.43 v 0 12.74 q 0,2.95 1.29,2.95 v 0 q 2.67,0 3.53,-8.28 v 0 l 1.3,0.15 q -1.08,11.16 -7.28,11.16 v 0 q -1.8,0 -2.77,-1.3 -0.97,-1.3 -1.22,-2.84 -0.25,-1.55 -0.25,-3.86 v 0 h -0.44 q -0.93,3.82 -3.81,5.91 -2.88,2.09 -7.38,2.09 -4.5,0 -7.89,-2.42 -3.38,-2.41 -3.38,-6.94 v 0 q 0,-3.39 1.94,-5.62 v 0 q 4.04,-4.61 18.29,-4.61 v 0 q 0.79,0 1.66,0 v 0 -3.53 q 0,-5.68 -1.95,-8.56 -1.94,-2.88 -6.73,-2.88 -4.79,0 -7.02,1.94 -2.23,1.94 -2.23,4.03 v 0 q 0,0.65 0.61,0.65 0.61,0 0.69,-0.65 v 0 q 0.43,-1.87 2.88,-1.87 v 0 q 1.58,0 2.52,1.12 0.93,1.11 0.93,2.73 0,1.62 -1.19,2.74 -1.18,1.11 -3.09,1.11 -1.91,0 -3.31,-1.47 -1.41,-1.48 -1.41,-3.64 v 0 q 0,-4.03 3.39,-6.08 3.38,-2.05 8.2,-2.05 z m 7.71,22.53 v 0 -4.82 q -0.72,0 -2.27,0 -1.55,0 -3.67,0.21 -2.13,0.22 -4.36,1.08 v 0 q -4.61,1.66 -4.61,7.35 v 0 q 0,3.45 1.66,5.54 1.66,2.09 5.33,2.09 3.67,0 5.79,-3.31 2.13,-3.31 2.13,-8.14 z M 421.13,0 v 49.54 h 4.75 v 1.08 h -15.91 v -1.08 h 4.75 V 2.02 h -5.11 V 0.94 h 1.51 q 5.62,0 10.01,-0.94 z m 55.44,48.74 V 30.17 h -5.25 v -1.15 h 18 v 1.15 h -5.26 v 19.87 q -1.37,-0.5 -3.31,-0.5 -1.95,0 -6.16,1.26 -4.21,1.26 -7.38,1.26 v 0 q -9.21,0 -14.33,-7.31 -5.11,-7.31 -5.11,-17.57 0,-10.26 5.37,-17.53 5.36,-7.27 14.43,-7.27 v 0 q 3.24,0 7.27,1.22 4.04,1.22 4.68,1.22 v 0 q 2.09,0 2.45,-2.44 v 0 h 0.87 v 15.76 h -1.16 Q 480.6,11.59 477.29,7.67 473.98,3.74 468.22,3.74 v 0 q -6.84,0 -9.36,5.84 v 0 q -2.09,4.96 -2.3,13.1 v 0 q 0,1.87 0,5.69 0,3.81 0.43,7.34 0.43,3.53 1.58,7.13 1.15,3.6 3.67,5.58 2.52,1.98 6.48,1.98 3.96,0 7.85,-1.66 z m 43.42,-27.21 v 0 q 0,-1.87 -1.37,-3.1 -1.37,-1.22 -3.67,-1.22 -2.31,0 -4.29,1.83 -1.98,1.84 -3.06,4.79 v 0 q -1.94,5.69 -1.94,12.31 v 0 13.4 h 5.26 v 1.08 H 494.5 v -1.08 h 4.75 V 18.58 h -5.11 V 17.5 h 1.51 q 5.76,0 10.15,-0.94 v 0 7.49 h 0.44 q 3.02,-7.99 9.07,-7.99 v 0 q 2.66,0 4.35,1.69 1.7,1.69 1.7,4.17 0,2.49 -1.41,3.96 -1.4,1.48 -3.31,1.48 -1.91,0 -3.1,-1.12 -1.18,-1.11 -1.18,-2.73 0,-1.62 0.93,-2.74 0.94,-1.11 2.52,-1.11 v 0 q 2.45,0 2.88,1.87 v 0 q 0.15,0.65 0.72,0.65 0.58,0 0.58,-0.65 z m 18.21,-5.47 v 0 q 8.57,0 11.34,3.85 2.78,3.85 2.78,13.43 v 0 12.74 q 0,2.95 1.29,2.95 v 0 q 2.67,0 3.53,-8.28 v 0 l 1.3,0.15 q -1.08,11.16 -7.28,11.16 v 0 q -1.8,0 -2.77,-1.3 -0.97,-1.3 -1.22,-2.84 -0.25,-1.55 -0.25,-3.86 v 0 h -0.44 q -0.93,3.82 -3.81,5.91 -2.88,2.09 -7.38,2.09 -4.5,0 -7.89,-2.42 -3.38,-2.41 -3.38,-6.94 v 0 q 0,-3.39 1.94,-5.62 v 0 q 4.04,-4.61 18.29,-4.61 v 0 q 0.79,0 1.66,0 v 0 -3.53 q 0,-5.68 -1.95,-8.56 -1.94,-2.88 -6.73,-2.88 -4.79,0 -7.02,1.94 -2.23,1.94 -2.23,4.03 v 0 q 0,0.65 0.61,0.65 0.61,0 0.69,-0.65 v 0 q 0.43,-1.87 2.88,-1.87 v 0 q 1.58,0 2.52,1.12 0.93,1.11 0.93,2.73 0,1.62 -1.19,2.74 -1.18,1.11 -3.09,1.11 -1.91,0 -3.31,-1.47 -1.41,-1.48 -1.41,-3.64 v 0 q 0,-4.03 3.39,-6.08 3.38,-2.05 8.2,-2.05 z m 7.71,22.53 v 0 -4.82 q -0.72,0 -2.27,0 -1.55,0 -3.67,0.21 -2.13,0.22 -4.36,1.08 v 0 Q 531,36.72 531,42.41 v 0 q 0,3.45 1.66,5.54 1.66,2.09 5.33,2.09 3.67,0 5.79,-3.31 2.13,-3.31 2.13,-8.14 z m 26.42,7.56 v 18.87 h 4.75 v 1.08 h -15.91 v -1.08 h 4.75 V 18.58 h -5.11 V 17.5 h 1.51 q 5.62,0 10.01,-0.94 v 0 7.49 h 0.43 q 1.3,-3.67 3.86,-5.83 2.55,-2.16 6.08,-2.16 v 0 q 6.48,0 9.61,5.07 3.13,5.08 3.13,12.85 0,7.78 -3.24,12.93 -3.24,5.15 -9.93,5.15 -6.7,0 -9.51,-5.91 v 0 z m -0.14,-12.17 v 0 2.6 q 0,5.61 2.16,9.54 2.16,3.92 6.77,3.92 v 0 q 4.96,0 6.26,-5.62 v 0 q 1.08,-4.53 1.08,-9.07 0,-4.53 -0.25,-6.91 -0.25,-2.38 -0.94,-4.93 -0.68,-2.56 -2.3,-4 -1.62,-1.44 -3.89,-1.44 -2.27,0 -4.03,1.62 -1.77,1.62 -2.77,4.14 v 0 q -2.09,5.11 -2.09,10.15 z m 41.33,15.56 h 4.75 v 1.08 h -15.91 v -1.08 h 4.75 V 2.02 H 602 V 0.94 h 1.51 q 5.69,0 10.15,-0.94 v 0 23.76 h 0.43 q 1.23,-3.46 4.14,-5.58 2.92,-2.12 6.52,-2.12 v 0 q 6.26,0 8.57,3.7 2.3,3.71 2.3,11.06 v 0 18.72 h 4.75 v 1.08 h -15.91 v -1.08 h 4.75 V 31.82 q 0,-8.13 -1.22,-10.72 v 0 q -0.58,-1.16 -1.77,-2.09 -1.18,-0.94 -3.49,-0.94 -2.3,0 -4.35,1.66 -2.06,1.65 -3.06,4.53 v 0 q -1.8,5.12 -1.8,12.24 v 0 z m 46.29,-33.48 v 0 q 10.95,0 10.95,7.41 v 0 q 0,2.16 -1.41,3.64 -1.4,1.47 -3.31,1.47 -1.91,0 -3.1,-1.11 -1.18,-1.12 -1.18,-2.74 0,-1.62 0.93,-2.73 0.94,-1.12 2.52,-1.12 v 0 q 2.45,0 2.88,1.87 v 0 q 0.07,0.65 0.69,0.65 0.61,0 0.61,-0.65 v 0 q 0,-2.01 -1.98,-3.63 -1.98,-1.62 -6.05,-1.62 -4.07,0 -6.7,1.51 -2.62,1.51 -2.62,4.21 0,2.7 2.08,4.36 2.09,1.65 5.04,2.73 2.96,1.08 5.94,2.27 2.99,1.19 5.08,3.42 2.09,2.23 2.09,5.4 v 0 q 0,5.4 -3.85,8.03 -3.86,2.63 -9.54,2.63 -5.69,0 -9.15,-2.02 -3.45,-2.02 -3.45,-6.12 v 0 q 0,-2.16 1.4,-3.64 1.4,-1.47 3.31,-1.47 1.91,0 3.1,1.11 1.19,1.12 1.19,2.74 0,1.62 -0.94,2.74 -0.94,1.11 -2.52,1.11 v 0 q -2.45,0 -2.88,-1.87 v 0 q -0.07,-0.65 -0.68,-0.65 -0.62,0 -0.62,0.65 v 0 q 0,2.16 2.42,4.07 2.41,1.91 7.16,1.91 v 0 q 10.44,0 10.44,-6.77 v 0 q 0,-4.18 -7.13,-6.77 v 0 q -3.02,-1.08 -5.97,-2.27 -2.96,-1.19 -5.04,-3.42 -2.09,-2.23 -2.09,-5.4 v 0 q 0,-4.61 3.63,-7.27 3.64,-2.66 8.75,-2.66 z"
     class=" bl-fill-0"
     data-color-origin="#000000"
     data-color-type="fill"
     id="path1" />
</svg>
