<svg xmlns="http://www.w3.org/2000/svg" xmlns:xlink="http://www.w3.org/1999/xlink" width="200" zoomAndPan="magnify" viewBox="0 0 150 30.000001" height="40" preserveAspectRatio="xMidYMid meet" version="1.0"><defs><filter x="0%" y="0%" width="100%" height="100%" id="c058762e27"><feColorMatrix values="0 0 0 0 1 0 0 0 0 1 0 0 0 0 1 0 0 0 1 0" color-interpolation-filters="sRGB"/></filter><clipPath id="77ed152f5b"><path d="M 4 9.398438 L 125 9.398438 L 125 21.738281 L 4 21.738281 Z M 4 9.398438 " clip-rule="nonzero"/></clipPath><clipPath id="d11d2fe288"><path d="M 125.269531 7 L 146 7 L 146 21.320312 L 125.269531 21.320312 Z M 125.269531 7 " clip-rule="nonzero"/></clipPath><clipPath id="055e835f9c"><path d="M 127.359375 21.5 L 144.460938 21.5 C 144.460938 21.5 145.175781 20.59375 145.269531 19.164062 C 145.398438 17.136719 144.984375 15.667969 144.984375 15.667969 C 144.660156 14.074219 143.945312 13.304688 143.945312 13.304688 C 143.945312 13.304688 143.914062 13.273438 143.863281 13.214844 C 144.085938 13.046875 144.289062 12.84375 144.460938 12.609375 C 144.460938 12.609375 144.96875 11.359375 144.964844 10.917969 C 144.960938 10.492188 144.460938 9.304688 144.460938 9.304688 C 144.226562 8.976562 143.914062 8.699219 143.539062 8.488281 C 142.179688 7.738281 140.460938 8.234375 139.710938 9.601562 C 139.636719 9.738281 139.566406 9.890625 139.511719 10.035156 C 139.445312 10.015625 139.386719 9.992188 139.320312 9.980469 C 136.296875 8.945312 133.28125 9.640625 133.28125 9.640625 C 133.28125 9.640625 133.257812 9.542969 133.242188 9.488281 C 132.8125 7.992188 131.246094 7.132812 129.753906 7.5625 C 128.257812 7.996094 127.398438 9.558594 127.832031 11.050781 C 127.933594 11.414062 128.105469 11.738281 128.328125 12.019531 C 127.78125 12.359375 126.347656 13.492188 125.894531 16.207031 C 125.289062 19.816406 127.03125 21.265625 127.359375 21.5 Z M 139.339844 19.003906 C 139.140625 19.519531 139.046875 19.308594 139.027344 18.984375 C 139.007812 18.660156 139.417969 18.808594 139.339844 19.003906 Z M 139.339844 19.003906 " clip-rule="nonzero"/></clipPath><linearGradient x1="247.74001" gradientTransform="matrix(0.0399125, 0, 0, -0.0399125, 125.639333, 15.777289)" y1="-138.877698" x2="247.74001" gradientUnits="userSpaceOnUse" y2="216.576059" id="177a87d703"><stop stop-opacity="1" stop-color="rgb(60.812378%, 81.39801%, 24.798584%)" offset="0"/><stop stop-opacity="1" stop-color="rgb(60.693359%, 81.335449%, 24.829102%)" offset="0.0078125"/><stop stop-opacity="1" stop-color="rgb(60.455322%, 81.211853%, 24.891663%)" offset="0.015625"/><stop stop-opacity="1" stop-color="rgb(60.217285%, 81.088257%, 24.952698%)" offset="0.0234375"/><stop stop-opacity="1" stop-color="rgb(59.979248%, 80.964661%, 25.013733%)" offset="0.03125"/><stop stop-opacity="1" stop-color="rgb(59.739685%, 80.839539%, 25.076294%)" offset="0.0390625"/><stop stop-opacity="1" stop-color="rgb(59.501648%, 80.715942%, 25.137329%)" offset="0.046875"/><stop stop-opacity="1" stop-color="rgb(59.263611%, 80.592346%, 25.198364%)" offset="0.0546875"/><stop stop-opacity="1" stop-color="rgb(59.025574%, 80.46875%, 25.260925%)" offset="0.0625"/><stop stop-opacity="1" stop-color="rgb(58.787537%, 80.345154%, 25.32196%)" offset="0.0703125"/><stop stop-opacity="1" stop-color="rgb(58.5495%, 80.221558%, 25.382996%)" offset="0.078125"/><stop stop-opacity="1" stop-color="rgb(58.311462%, 80.097961%, 25.445557%)" offset="0.0859375"/><stop stop-opacity="1" stop-color="rgb(58.073425%, 79.972839%, 25.506592%)" offset="0.09375"/><stop stop-opacity="1" stop-color="rgb(57.835388%, 79.849243%, 25.567627%)" offset="0.101562"/><stop stop-opacity="1" stop-color="rgb(57.597351%, 79.725647%, 25.630188%)" offset="0.109375"/><stop stop-opacity="1" stop-color="rgb(57.357788%, 79.602051%, 25.691223%)" offset="0.117187"/><stop stop-opacity="1" stop-color="rgb(57.119751%, 79.478455%, 25.752258%)" offset="0.125"/><stop stop-opacity="1" stop-color="rgb(56.881714%, 79.354858%, 25.813293%)" offset="0.132812"/><stop stop-opacity="1" stop-color="rgb(56.643677%, 79.229736%, 25.875854%)" offset="0.140625"/><stop stop-opacity="1" stop-color="rgb(56.40564%, 79.10614%, 25.93689%)" offset="0.148437"/><stop stop-opacity="1" stop-color="rgb(56.167603%, 78.982544%, 25.997925%)" offset="0.15625"/><stop stop-opacity="1" stop-color="rgb(55.929565%, 78.858948%, 26.060486%)" offset="0.164062"/><stop stop-opacity="1" stop-color="rgb(55.691528%, 78.735352%, 26.121521%)" offset="0.171875"/><stop stop-opacity="1" stop-color="rgb(55.453491%, 78.611755%, 26.182556%)" offset="0.179687"/><stop stop-opacity="1" stop-color="rgb(55.213928%, 78.488159%, 26.245117%)" offset="0.1875"/><stop stop-opacity="1" stop-color="rgb(54.975891%, 78.363037%, 26.306152%)" offset="0.195312"/><stop stop-opacity="1" stop-color="rgb(54.737854%, 78.239441%, 26.367188%)" offset="0.203125"/><stop stop-opacity="1" stop-color="rgb(54.499817%, 78.115845%, 26.429749%)" offset="0.210937"/><stop stop-opacity="1" stop-color="rgb(54.26178%, 77.992249%, 26.490784%)" offset="0.21875"/><stop stop-opacity="1" stop-color="rgb(54.023743%, 77.868652%, 26.551819%)" offset="0.226562"/><stop stop-opacity="1" stop-color="rgb(53.785706%, 77.745056%, 26.61438%)" offset="0.234375"/><stop stop-opacity="1" stop-color="rgb(53.547668%, 77.619934%, 26.675415%)" offset="0.242187"/><stop stop-opacity="1" stop-color="rgb(53.309631%, 77.496338%, 26.73645%)" offset="0.25"/><stop stop-opacity="1" stop-color="rgb(53.071594%, 77.372742%, 26.799011%)" offset="0.257812"/><stop stop-opacity="1" stop-color="rgb(52.832031%, 77.249146%, 26.860046%)" offset="0.265625"/><stop stop-opacity="1" stop-color="rgb(52.593994%, 77.125549%, 26.921082%)" offset="0.273437"/><stop stop-opacity="1" stop-color="rgb(52.355957%, 77.001953%, 26.983643%)" offset="0.28125"/><stop stop-opacity="1" stop-color="rgb(52.11792%, 76.878357%, 27.044678%)" offset="0.289062"/><stop stop-opacity="1" stop-color="rgb(51.879883%, 76.753235%, 27.105713%)" offset="0.296875"/><stop stop-opacity="1" stop-color="rgb(51.641846%, 76.629639%, 27.166748%)" offset="0.304687"/><stop stop-opacity="1" stop-color="rgb(51.403809%, 76.506042%, 27.229309%)" offset="0.3125"/><stop stop-opacity="1" stop-color="rgb(51.165771%, 76.382446%, 27.290344%)" offset="0.320312"/><stop stop-opacity="1" stop-color="rgb(50.927734%, 76.25885%, 27.351379%)" offset="0.328125"/><stop stop-opacity="1" stop-color="rgb(50.688171%, 76.135254%, 27.41394%)" offset="0.335937"/><stop stop-opacity="1" stop-color="rgb(50.450134%, 76.010132%, 27.474976%)" offset="0.34375"/><stop stop-opacity="1" stop-color="rgb(50.212097%, 75.886536%, 27.536011%)" offset="0.351562"/><stop stop-opacity="1" stop-color="rgb(49.97406%, 75.762939%, 27.598572%)" offset="0.359375"/><stop stop-opacity="1" stop-color="rgb(49.736023%, 75.639343%, 27.659607%)" offset="0.367187"/><stop stop-opacity="1" stop-color="rgb(49.497986%, 75.515747%, 27.720642%)" offset="0.375"/><stop stop-opacity="1" stop-color="rgb(49.259949%, 75.392151%, 27.783203%)" offset="0.382812"/><stop stop-opacity="1" stop-color="rgb(49.021912%, 75.268555%, 27.844238%)" offset="0.390625"/><stop stop-opacity="1" stop-color="rgb(48.783875%, 75.143433%, 27.905273%)" offset="0.398437"/><stop stop-opacity="1" stop-color="rgb(48.545837%, 75.019836%, 27.967834%)" offset="0.40625"/><stop stop-opacity="1" stop-color="rgb(48.306274%, 74.89624%, 28.02887%)" offset="0.414062"/><stop stop-opacity="1" stop-color="rgb(48.068237%, 74.772644%, 28.089905%)" offset="0.421875"/><stop stop-opacity="1" stop-color="rgb(47.8302%, 74.649048%, 28.152466%)" offset="0.429687"/><stop stop-opacity="1" stop-color="rgb(47.592163%, 74.525452%, 28.213501%)" offset="0.4375"/><stop stop-opacity="1" stop-color="rgb(47.354126%, 74.40033%, 28.274536%)" offset="0.445312"/><stop stop-opacity="1" stop-color="rgb(47.116089%, 74.276733%, 28.337097%)" offset="0.453125"/><stop stop-opacity="1" stop-color="rgb(46.878052%, 74.153137%, 28.398132%)" offset="0.460937"/><stop stop-opacity="1" stop-color="rgb(46.640015%, 74.029541%, 28.459167%)" offset="0.46875"/><stop stop-opacity="1" stop-color="rgb(46.401978%, 73.905945%, 28.520203%)" offset="0.476562"/><stop stop-opacity="1" stop-color="rgb(46.162415%, 73.782349%, 28.582764%)" offset="0.484375"/><stop stop-opacity="1" stop-color="rgb(45.924377%, 73.658752%, 28.643799%)" offset="0.492187"/><stop stop-opacity="1" stop-color="rgb(45.68634%, 73.53363%, 28.704834%)" offset="0.5"/><stop stop-opacity="1" stop-color="rgb(45.448303%, 73.410034%, 28.767395%)" offset="0.507812"/><stop stop-opacity="1" stop-color="rgb(45.210266%, 73.286438%, 28.82843%)" offset="0.515625"/><stop stop-opacity="1" stop-color="rgb(44.972229%, 73.162842%, 28.889465%)" offset="0.523438"/><stop stop-opacity="1" stop-color="rgb(44.734192%, 73.039246%, 28.952026%)" offset="0.53125"/><stop stop-opacity="1" stop-color="rgb(44.496155%, 72.915649%, 29.013062%)" offset="0.539062"/><stop stop-opacity="1" stop-color="rgb(44.258118%, 72.790527%, 29.074097%)" offset="0.546875"/><stop stop-opacity="1" stop-color="rgb(44.020081%, 72.666931%, 29.136658%)" offset="0.554688"/><stop stop-opacity="1" stop-color="rgb(43.780518%, 72.543335%, 29.197693%)" offset="0.5625"/><stop stop-opacity="1" stop-color="rgb(43.54248%, 72.419739%, 29.258728%)" offset="0.570312"/><stop stop-opacity="1" stop-color="rgb(43.304443%, 72.296143%, 29.321289%)" offset="0.578125"/><stop stop-opacity="1" stop-color="rgb(43.066406%, 72.172546%, 29.382324%)" offset="0.585937"/><stop stop-opacity="1" stop-color="rgb(42.828369%, 72.04895%, 29.443359%)" offset="0.59375"/><stop stop-opacity="1" stop-color="rgb(42.590332%, 71.923828%, 29.50592%)" offset="0.601562"/><stop stop-opacity="1" stop-color="rgb(42.352295%, 71.800232%, 29.566956%)" offset="0.609375"/><stop stop-opacity="1" stop-color="rgb(42.114258%, 71.676636%, 29.627991%)" offset="0.617187"/><stop stop-opacity="1" stop-color="rgb(41.876221%, 71.55304%, 29.690552%)" offset="0.625"/><stop stop-opacity="1" stop-color="rgb(41.638184%, 71.429443%, 29.751587%)" offset="0.632812"/><stop stop-opacity="1" stop-color="rgb(41.398621%, 71.305847%, 29.812622%)" offset="0.640625"/><stop stop-opacity="1" stop-color="rgb(41.160583%, 71.180725%, 29.873657%)" offset="0.648437"/><stop stop-opacity="1" stop-color="rgb(40.922546%, 71.057129%, 29.936218%)" offset="0.65625"/><stop stop-opacity="1" stop-color="rgb(40.684509%, 70.933533%, 29.997253%)" offset="0.664062"/><stop stop-opacity="1" stop-color="rgb(40.446472%, 70.809937%, 30.058289%)" offset="0.671875"/><stop stop-opacity="1" stop-color="rgb(40.208435%, 70.68634%, 30.12085%)" offset="0.679687"/><stop stop-opacity="1" stop-color="rgb(39.970398%, 70.562744%, 30.181885%)" offset="0.6875"/><stop stop-opacity="1" stop-color="rgb(39.732361%, 70.439148%, 30.24292%)" offset="0.695312"/><stop stop-opacity="1" stop-color="rgb(39.494324%, 70.314026%, 30.305481%)" offset="0.703125"/><stop stop-opacity="1" stop-color="rgb(39.254761%, 70.19043%, 30.366516%)" offset="0.710937"/><stop stop-opacity="1" stop-color="rgb(39.016724%, 70.066833%, 30.427551%)" offset="0.71875"/><stop stop-opacity="1" stop-color="rgb(38.778687%, 69.943237%, 30.490112%)" offset="0.726562"/><stop stop-opacity="1" stop-color="rgb(38.540649%, 69.819641%, 30.551147%)" offset="0.734375"/><stop stop-opacity="1" stop-color="rgb(38.302612%, 69.696045%, 30.612183%)" offset="0.742187"/><stop stop-opacity="1" stop-color="rgb(38.064575%, 69.570923%, 30.674744%)" offset="0.75"/><stop stop-opacity="1" stop-color="rgb(37.826538%, 69.447327%, 30.735779%)" offset="0.757812"/><stop stop-opacity="1" stop-color="rgb(37.588501%, 69.32373%, 30.796814%)" offset="0.765625"/><stop stop-opacity="1" stop-color="rgb(37.350464%, 69.200134%, 30.859375%)" offset="0.773437"/><stop stop-opacity="1" stop-color="rgb(37.112427%, 69.076538%, 30.92041%)" offset="0.78125"/><stop stop-opacity="1" stop-color="rgb(36.872864%, 68.952942%, 30.981445%)" offset="0.789062"/><stop stop-opacity="1" stop-color="rgb(36.634827%, 68.829346%, 31.044006%)" offset="0.796875"/><stop stop-opacity="1" stop-color="rgb(36.39679%, 68.704224%, 31.105042%)" offset="0.804687"/><stop stop-opacity="1" stop-color="rgb(36.158752%, 68.580627%, 31.166077%)" offset="0.8125"/><stop stop-opacity="1" stop-color="rgb(35.920715%, 68.457031%, 31.227112%)" offset="0.820312"/><stop stop-opacity="1" stop-color="rgb(35.682678%, 68.333435%, 31.289673%)" offset="0.828125"/><stop stop-opacity="1" stop-color="rgb(35.444641%, 68.209839%, 31.350708%)" offset="0.835937"/><stop stop-opacity="1" stop-color="rgb(35.206604%, 68.086243%, 31.411743%)" offset="0.84375"/><stop stop-opacity="1" stop-color="rgb(34.968567%, 67.961121%, 31.474304%)" offset="0.851562"/><stop stop-opacity="1" stop-color="rgb(34.729004%, 67.837524%, 31.535339%)" offset="0.859375"/><stop stop-opacity="1" stop-color="rgb(34.490967%, 67.713928%, 31.596375%)" offset="0.867187"/><stop stop-opacity="1" stop-color="rgb(34.25293%, 67.590332%, 31.658936%)" offset="0.875"/><stop stop-opacity="1" stop-color="rgb(34.014893%, 67.466736%, 31.719971%)" offset="0.882812"/><stop stop-opacity="1" stop-color="rgb(33.776855%, 67.34314%, 31.781006%)" offset="0.890625"/><stop stop-opacity="1" stop-color="rgb(33.538818%, 67.219543%, 31.843567%)" offset="0.898438"/><stop stop-opacity="1" stop-color="rgb(33.300781%, 67.094421%, 31.904602%)" offset="0.90625"/><stop stop-opacity="1" stop-color="rgb(33.062744%, 66.970825%, 31.965637%)" offset="0.914062"/><stop stop-opacity="1" stop-color="rgb(32.824707%, 66.847229%, 32.028198%)" offset="0.921875"/><stop stop-opacity="1" stop-color="rgb(32.58667%, 66.723633%, 32.089233%)" offset="0.929687"/><stop stop-opacity="1" stop-color="rgb(32.347107%, 66.600037%, 32.150269%)" offset="0.9375"/><stop stop-opacity="1" stop-color="rgb(32.10907%, 66.47644%, 32.21283%)" offset="0.945312"/><stop stop-opacity="1" stop-color="rgb(31.871033%, 66.351318%, 32.273865%)" offset="0.953125"/><stop stop-opacity="1" stop-color="rgb(31.632996%, 66.227722%, 32.3349%)" offset="0.960937"/><stop stop-opacity="1" stop-color="rgb(31.394958%, 66.104126%, 32.397461%)" offset="0.96875"/><stop stop-opacity="1" stop-color="rgb(31.137085%, 65.971375%, 32.463074%)" offset="1"/></linearGradient><clipPath id="03d109b742"><path d="M 129 14 L 142 14 L 142 21.320312 L 129 21.320312 Z M 129 14 " clip-rule="nonzero"/></clipPath><clipPath id="61fe8800bd"><path d="M 125.269531 10 L 146 10 L 146 21.320312 L 125.269531 21.320312 Z M 125.269531 10 " clip-rule="nonzero"/></clipPath><mask id="7f38978b66"><g filter="url(#c058762e27)"><rect x="-15" width="180" fill="#000000" y="-3" height="36.000001" fill-opacity="0.5"/></g></mask><clipPath id="c6ea7711b1"><path d="M 0.75 0.683594 L 20.492188 0.683594 L 20.492188 11.320312 L 0.75 11.320312 Z M 0.75 0.683594 " clip-rule="nonzero"/></clipPath><clipPath id="7278b3f6e2"><rect x="0" width="21" y="0" height="12"/></clipPath><clipPath id="5d4eb17cb0"><path d="M 125.269531 17 L 146 17 L 146 21.320312 L 125.269531 21.320312 Z M 125.269531 17 " clip-rule="nonzero"/></clipPath><clipPath id="e6a5a3784b"><path d="M 125.269531 7 L 146 7 L 146 21.320312 L 125.269531 21.320312 Z M 125.269531 7 " clip-rule="nonzero"/></clipPath><clipPath id="222be79135"><path d="M 126 4.625 L 143 4.625 L 143 16 L 126 16 Z M 126 4.625 " clip-rule="nonzero"/></clipPath><clipPath id="f52457f05b"><path d="M 126 4.625 L 129 4.625 L 129 8 L 126 8 Z M 126 4.625 " clip-rule="nonzero"/></clipPath></defs><g clip-path="url(#77ed152f5b)"><path fill="#ffffff" d="M 9.324219 18.667969 L 5.964844 18.667969 L 5.964844 18.453125 L 6.90625 18.453125 L 6.90625 10.308594 C 6.117188 10.308594 5.53125 10.441406 5.152344 10.703125 C 4.84375 10.90625 4.632812 11.363281 4.519531 12.074219 C 4.476562 12.355469 4.441406 12.742188 4.417969 13.234375 L 4.210938 13.234375 L 4.339844 10.097656 L 10.820312 10.097656 L 10.949219 13.234375 L 10.742188 13.234375 C 10.699219 12.363281 10.613281 11.753906 10.476562 11.402344 C 10.34375 11.050781 10.1875 10.816406 10.007812 10.703125 C 9.628906 10.441406 9.042969 10.308594 8.25 10.308594 L 8.25 18.453125 L 9.324219 18.453125 Z M 16.652344 18.007812 C 16.15625 18.621094 15.457031 18.929688 14.5625 18.929688 C 13.667969 18.929688 12.972656 18.621094 12.472656 18.007812 C 11.972656 17.390625 11.722656 16.601562 11.722656 15.632812 C 11.722656 14.667969 11.972656 13.875 12.472656 13.261719 C 12.972656 12.648438 13.667969 12.339844 14.5625 12.339844 C 15.457031 12.339844 16.15625 12.648438 16.652344 13.261719 C 17.152344 13.875 17.402344 14.667969 17.402344 15.632812 C 17.402344 16.601562 17.152344 17.390625 16.652344 18.007812 Z M 16.125 16.515625 C 16.140625 16.261719 16.152344 15.96875 16.152344 15.632812 C 16.152344 15.300781 16.140625 15.003906 16.125 14.75 C 16.109375 14.496094 16.066406 14.222656 16.003906 13.933594 C 15.9375 13.644531 15.851562 13.402344 15.746094 13.214844 C 15.636719 13.027344 15.480469 12.871094 15.277344 12.746094 C 15.078125 12.625 14.839844 12.5625 14.5625 12.5625 C 14.289062 12.5625 14.046875 12.625 13.847656 12.746094 C 13.644531 12.871094 13.488281 13.027344 13.382812 13.214844 C 13.273438 13.402344 13.1875 13.644531 13.125 13.933594 C 13.058594 14.222656 13.019531 14.496094 13.003906 14.75 C 12.984375 15.003906 12.976562 15.300781 12.976562 15.632812 C 12.976562 15.96875 12.984375 16.261719 13.003906 16.515625 C 13.019531 16.773438 13.058594 17.042969 13.125 17.332031 C 13.1875 17.625 13.273438 17.863281 13.382812 18.054688 C 13.488281 18.242188 13.644531 18.398438 13.847656 18.519531 C 14.046875 18.644531 14.289062 18.707031 14.5625 18.707031 C 14.839844 18.707031 15.078125 18.644531 15.277344 18.519531 C 15.480469 18.398438 15.636719 18.242188 15.746094 18.054688 C 15.851562 17.863281 15.9375 17.625 16.003906 17.332031 C 16.066406 17.042969 16.109375 16.773438 16.125 16.515625 Z M 21.199219 12.339844 C 22.222656 12.339844 22.898438 12.574219 23.234375 13.042969 C 23.5625 13.515625 23.730469 14.332031 23.730469 15.503906 L 23.730469 17.835938 C 23.730469 18.195312 23.804688 18.375 23.960938 18.375 C 24.28125 18.375 24.492188 17.871094 24.59375 16.859375 L 24.828125 16.886719 C 24.695312 18.25 24.261719 18.929688 23.523438 18.929688 C 23.308594 18.929688 23.140625 18.851562 23.023438 18.691406 C 22.910156 18.535156 22.835938 18.359375 22.804688 18.171875 C 22.777344 17.984375 22.761719 17.746094 22.761719 17.464844 L 22.683594 17.464844 C 22.570312 17.933594 22.34375 18.292969 22 18.546875 C 21.65625 18.804688 21.214844 18.929688 20.675781 18.929688 C 20.136719 18.929688 19.667969 18.78125 19.261719 18.488281 C 18.859375 18.191406 18.65625 17.769531 18.65625 17.214844 C 18.65625 16.804688 18.773438 16.460938 19.003906 16.1875 C 19.488281 15.625 20.578125 15.34375 22.28125 15.34375 C 22.378906 15.34375 22.476562 15.34375 22.578125 15.34375 L 22.578125 14.695312 C 22.578125 14.003906 22.464844 13.480469 22.230469 13.128906 C 22 12.777344 21.597656 12.601562 21.023438 12.601562 C 20.453125 12.601562 20.03125 12.722656 19.765625 12.957031 C 19.5 13.195312 19.363281 13.441406 19.363281 13.695312 C 19.363281 13.773438 19.402344 13.816406 19.472656 13.816406 C 19.546875 13.816406 19.589844 13.773438 19.597656 13.695312 C 19.648438 13.46875 19.820312 13.351562 20.113281 13.351562 C 20.304688 13.351562 20.453125 13.421875 20.566406 13.558594 C 20.675781 13.695312 20.734375 13.859375 20.734375 14.058594 C 20.734375 14.257812 20.664062 14.421875 20.523438 14.558594 C 20.378906 14.695312 20.195312 14.761719 19.964844 14.761719 C 19.738281 14.761719 19.539062 14.671875 19.371094 14.492188 C 19.203125 14.3125 19.121094 14.089844 19.121094 13.828125 C 19.121094 13.335938 19.320312 12.964844 19.726562 12.714844 C 20.132812 12.464844 20.621094 12.339844 21.199219 12.339844 Z M 22.578125 16.464844 L 22.578125 15.582031 C 22.492188 15.582031 22.359375 15.582031 22.171875 15.582031 C 21.988281 15.582031 21.769531 15.59375 21.515625 15.621094 C 21.261719 15.648438 21 15.710938 20.734375 15.816406 C 20.183594 16.019531 19.910156 16.46875 19.910156 17.164062 C 19.910156 17.585938 20.007812 17.921875 20.203125 18.179688 C 20.402344 18.433594 20.722656 18.558594 21.160156 18.558594 C 21.597656 18.558594 21.945312 18.359375 22.199219 17.953125 C 22.453125 17.550781 22.578125 17.054688 22.578125 16.464844 Z M 31.734375 18.46875 L 31.734375 18.667969 L 29.730469 18.667969 L 29.730469 17.464844 L 29.65625 17.464844 C 29.5 17.914062 29.269531 18.269531 28.960938 18.535156 C 28.65625 18.796875 28.292969 18.929688 27.871094 18.929688 C 27.097656 18.929688 26.523438 18.621094 26.148438 18 C 25.777344 17.378906 25.589844 16.597656 25.589844 15.648438 C 25.589844 14.699219 25.78125 13.910156 26.167969 13.28125 C 26.554688 12.652344 27.148438 12.339844 27.949219 12.339844 C 28.75 12.339844 29.320312 12.699219 29.65625 13.417969 L 29.730469 13.417969 L 29.730469 9.769531 L 28.816406 9.769531 L 28.816406 9.570312 L 29.085938 9.570312 C 29.757812 9.570312 30.355469 9.511719 30.882812 9.398438 L 30.882812 18.46875 Z M 29.757812 15.648438 L 29.757812 15.171875 C 29.757812 14.488281 29.628906 13.90625 29.371094 13.425781 C 29.113281 12.945312 28.707031 12.707031 28.15625 12.707031 C 27.5625 12.707031 27.1875 13.050781 27.035156 13.734375 C 26.90625 14.289062 26.839844 14.84375 26.839844 15.398438 C 26.839844 15.949219 26.855469 16.371094 26.882812 16.660156 C 26.914062 16.953125 26.96875 17.253906 27.054688 17.5625 C 27.132812 17.875 27.273438 18.121094 27.464844 18.296875 C 27.660156 18.472656 27.890625 18.558594 28.164062 18.558594 C 28.433594 18.558594 28.675781 18.460938 28.886719 18.265625 C 29.097656 18.066406 29.261719 17.8125 29.382812 17.503906 C 29.632812 16.882812 29.757812 16.261719 29.757812 15.648438 Z M 35.269531 12.339844 C 36.292969 12.339844 36.972656 12.574219 37.304688 13.042969 C 37.632812 13.515625 37.800781 14.332031 37.800781 15.503906 L 37.800781 17.835938 C 37.800781 18.195312 37.878906 18.375 38.03125 18.375 C 38.351562 18.375 38.5625 17.871094 38.664062 16.859375 L 38.898438 16.886719 C 38.769531 18.25 38.332031 18.929688 37.59375 18.929688 C 37.378906 18.929688 37.210938 18.851562 37.09375 18.691406 C 36.980469 18.535156 36.90625 18.359375 36.875 18.171875 C 36.847656 17.984375 36.832031 17.746094 36.832031 17.464844 L 36.753906 17.464844 C 36.640625 17.933594 36.414062 18.292969 36.070312 18.546875 C 35.726562 18.804688 35.285156 18.929688 34.746094 18.929688 C 34.207031 18.929688 33.738281 18.78125 33.332031 18.488281 C 32.929688 18.191406 32.726562 17.769531 32.726562 17.214844 C 32.726562 16.804688 32.84375 16.460938 33.074219 16.1875 C 33.558594 15.625 34.648438 15.34375 36.351562 15.34375 C 36.449219 15.34375 36.546875 15.34375 36.652344 15.34375 L 36.652344 14.695312 C 36.652344 14.003906 36.535156 13.480469 36.304688 13.128906 C 36.070312 12.777344 35.667969 12.601562 35.09375 12.601562 C 34.523438 12.601562 34.101562 12.722656 33.835938 12.957031 C 33.570312 13.195312 33.4375 13.441406 33.4375 13.695312 C 33.4375 13.773438 33.472656 13.816406 33.546875 13.816406 C 33.621094 13.816406 33.660156 13.773438 33.667969 13.695312 C 33.71875 13.46875 33.890625 13.351562 34.183594 13.351562 C 34.375 13.351562 34.523438 13.421875 34.636719 13.558594 C 34.75 13.695312 34.804688 13.859375 34.804688 14.058594 C 34.804688 14.257812 34.734375 14.421875 34.59375 14.558594 C 34.449219 14.695312 34.265625 14.761719 34.035156 14.761719 C 33.808594 14.761719 33.609375 14.671875 33.441406 14.492188 C 33.273438 14.3125 33.191406 14.089844 33.191406 13.828125 C 33.191406 13.335938 33.394531 12.964844 33.796875 12.714844 C 34.203125 12.464844 34.691406 12.339844 35.269531 12.339844 Z M 36.652344 16.464844 L 36.652344 15.582031 C 36.566406 15.582031 36.429688 15.582031 36.242188 15.582031 C 36.058594 15.582031 35.839844 15.59375 35.585938 15.621094 C 35.332031 15.648438 35.070312 15.710938 34.804688 15.816406 C 34.253906 16.019531 33.980469 16.46875 33.980469 17.164062 C 33.980469 17.585938 34.078125 17.921875 34.273438 18.179688 C 34.472656 18.433594 34.792969 18.558594 35.230469 18.558594 C 35.667969 18.558594 36.015625 18.359375 36.269531 17.953125 C 36.523438 17.550781 36.652344 17.054688 36.652344 16.464844 Z M 41.453125 9.398438 L 41.453125 18.46875 L 42.304688 18.46875 L 42.304688 18.667969 L 39.449219 18.667969 L 39.449219 18.46875 L 40.304688 18.46875 L 40.304688 9.769531 L 39.386719 9.769531 L 39.386719 9.570312 L 39.660156 9.570312 C 40.328125 9.570312 40.925781 9.511719 41.453125 9.398438 Z M 45.210938 9.398438 L 45.210938 18.46875 L 46.0625 18.46875 L 46.0625 18.667969 L 43.210938 18.667969 L 43.210938 18.46875 L 44.0625 18.46875 L 44.0625 9.769531 L 43.144531 9.769531 L 43.144531 9.570312 L 43.414062 9.570312 C 44.085938 9.570312 44.683594 9.511719 45.210938 9.398438 Z M 49.90625 21.738281 C 49.476562 21.738281 49.132812 21.582031 48.875 21.269531 C 48.617188 20.957031 48.488281 20.554688 48.488281 20.0625 C 48.488281 19.316406 48.867188 18.660156 49.625 18.097656 L 49.613281 18.046875 C 49.027344 18.011719 48.515625 17.601562 48.074219 16.820312 C 47.636719 16.039062 47.417969 14.945312 47.417969 13.539062 L 47.417969 12.800781 L 46.5 12.800781 L 46.5 12.601562 L 46.773438 12.601562 C 47.453125 12.601562 48.058594 12.546875 48.589844 12.429688 L 48.589844 13.234375 C 48.589844 14.472656 48.734375 15.472656 49.023438 16.234375 C 49.3125 16.992188 49.726562 17.375 50.269531 17.375 C 50.65625 17.375 51.0625 17.074219 51.484375 16.476562 C 51.90625 15.878906 52.117188 15.203125 52.117188 14.449219 C 52.117188 14.015625 52.054688 13.636719 51.933594 13.308594 C 51.816406 12.976562 51.625 12.761719 51.367188 12.652344 C 51.28125 12.609375 51.179688 12.589844 51.070312 12.589844 C 50.957031 12.589844 50.902344 12.625 50.902344 12.703125 C 50.902344 12.777344 50.941406 12.816406 51.019531 12.824219 C 51.25 12.871094 51.363281 13.019531 51.355469 13.273438 C 51.355469 13.765625 51.128906 14.011719 50.683594 14.011719 C 50.476562 14.011719 50.308594 13.9375 50.171875 13.789062 C 50.039062 13.640625 49.972656 13.441406 49.972656 13.203125 C 49.972656 12.960938 50.066406 12.753906 50.257812 12.589844 C 50.445312 12.421875 50.671875 12.339844 50.941406 12.339844 C 51.421875 12.339844 51.777344 12.53125 52.003906 12.917969 C 52.234375 13.304688 52.347656 13.796875 52.347656 14.394531 C 52.347656 15.808594 51.78125 16.902344 50.644531 17.679688 C 50.625 17.695312 50.535156 17.757812 50.375 17.859375 C 50.210938 17.96875 50.109375 18.035156 50.070312 18.066406 C 50.03125 18.097656 49.9375 18.164062 49.792969 18.269531 C 49.644531 18.375 49.550781 18.453125 49.503906 18.507812 C 49.453125 18.558594 49.375 18.640625 49.261719 18.75 C 49.152344 18.859375 49.074219 18.957031 49.03125 19.035156 C 48.988281 19.113281 48.9375 19.210938 48.875 19.324219 C 48.773438 19.519531 48.71875 19.792969 48.71875 20.148438 C 48.71875 20.503906 48.828125 20.816406 49.042969 21.085938 C 49.257812 21.351562 49.5 21.484375 49.765625 21.484375 C 49.851562 21.484375 49.894531 21.453125 49.894531 21.382812 C 49.894531 21.3125 49.855469 21.265625 49.777344 21.25 C 49.554688 21.199219 49.441406 21.023438 49.441406 20.722656 C 49.441406 20.539062 49.511719 20.386719 49.644531 20.265625 C 49.777344 20.148438 49.941406 20.089844 50.132812 20.089844 C 50.328125 20.089844 50.492188 20.160156 50.625 20.308594 C 50.757812 20.453125 50.824219 20.640625 50.824219 20.867188 C 50.824219 21.09375 50.734375 21.296875 50.554688 21.472656 C 50.371094 21.648438 50.15625 21.738281 49.90625 21.738281 Z M 62.199219 18.796875 C 61.886719 18.796875 61.636719 18.667969 61.449219 18.402344 C 61.257812 18.140625 61.164062 17.75 61.164062 17.230469 L 61.164062 16.359375 C 61.164062 15.613281 61.019531 15.085938 60.734375 14.777344 C 60.445312 14.46875 59.988281 14.316406 59.371094 14.316406 L 58.441406 14.316406 L 58.441406 18.453125 L 59.511719 18.453125 L 59.511719 18.667969 L 56.15625 18.667969 L 56.15625 18.453125 L 57.097656 18.453125 L 57.097656 10.308594 L 56.15625 10.308594 L 56.15625 10.097656 L 59.265625 10.097656 C 60.566406 10.097656 61.445312 10.246094 61.898438 10.542969 C 62.097656 10.667969 62.265625 10.851562 62.402344 11.09375 C 62.542969 11.332031 62.609375 11.625 62.609375 11.96875 C 62.609375 12.566406 62.4375 13.0625 62.09375 13.453125 C 61.75 13.84375 61.246094 14.082031 60.585938 14.167969 L 60.585938 14.234375 C 61.375 14.234375 61.898438 14.429688 62.152344 14.816406 C 62.40625 15.203125 62.53125 15.863281 62.53125 16.792969 L 62.53125 17.398438 C 62.53125 17.71875 62.554688 17.933594 62.597656 18.054688 C 62.640625 18.171875 62.714844 18.230469 62.824219 18.230469 C 62.929688 18.230469 63.042969 18.144531 63.160156 17.96875 C 63.273438 17.792969 63.371094 17.527344 63.449219 17.175781 L 63.683594 17.230469 C 63.476562 18.277344 62.980469 18.796875 62.199219 18.796875 Z M 59.265625 14.105469 C 59.988281 14.105469 60.488281 13.960938 60.757812 13.675781 C 61.03125 13.390625 61.164062 12.867188 61.164062 12.109375 C 61.164062 11.347656 61.007812 10.859375 60.695312 10.636719 C 60.378906 10.417969 59.84375 10.308594 59.085938 10.308594 L 58.441406 10.308594 L 58.441406 14.105469 Z M 67.65625 12.339844 C 68.304688 12.339844 68.84375 12.480469 69.277344 12.761719 C 69.714844 13.039062 69.929688 13.460938 69.929688 14.023438 C 69.929688 14.894531 69.445312 15.433594 68.472656 15.632812 C 67.980469 15.730469 67.371094 15.777344 66.640625 15.777344 L 66.03125 15.777344 L 66.03125 16.160156 C 66.03125 16.875 66.175781 17.449219 66.464844 17.894531 C 66.753906 18.339844 67.175781 18.558594 67.730469 18.558594 C 68.285156 18.558594 68.71875 18.394531 69.03125 18.058594 C 69.347656 17.726562 69.570312 17.296875 69.699219 16.769531 L 69.929688 16.792969 C 69.792969 17.4375 69.515625 17.953125 69.097656 18.34375 C 68.679688 18.734375 68.152344 18.929688 67.515625 18.929688 C 66.621094 18.929688 65.941406 18.628906 65.476562 18.027344 C 65.011719 17.425781 64.78125 16.628906 64.78125 15.632812 C 64.78125 14.640625 65.027344 13.84375 65.527344 13.242188 C 66.027344 12.640625 66.738281 12.339844 67.65625 12.339844 Z M 66.03125 15.171875 L 66.03125 15.542969 L 66.484375 15.542969 C 67.179688 15.542969 67.667969 15.472656 67.949219 15.332031 C 68.226562 15.191406 68.417969 15.015625 68.523438 14.8125 C 68.625 14.601562 68.675781 14.3125 68.675781 13.933594 C 68.675781 13.554688 68.585938 13.230469 68.398438 12.964844 C 68.214844 12.695312 67.933594 12.5625 67.554688 12.5625 C 67.175781 12.5625 66.867188 12.699219 66.632812 12.976562 C 66.394531 13.253906 66.234375 13.578125 66.15625 13.945312 C 66.074219 14.316406 66.03125 14.722656 66.03125 15.171875 Z M 73.53125 12.339844 C 74.554688 12.339844 75.234375 12.574219 75.5625 13.042969 C 75.894531 13.515625 76.0625 14.332031 76.0625 15.503906 L 76.0625 17.835938 C 76.0625 18.195312 76.140625 18.375 76.292969 18.375 C 76.613281 18.375 76.824219 17.871094 76.925781 16.859375 L 77.160156 16.886719 C 77.03125 18.25 76.59375 18.929688 75.855469 18.929688 C 75.640625 18.929688 75.472656 18.851562 75.359375 18.691406 C 75.242188 18.535156 75.167969 18.359375 75.140625 18.171875 C 75.109375 17.984375 75.09375 17.746094 75.09375 17.464844 L 75.015625 17.464844 C 74.902344 17.933594 74.675781 18.292969 74.332031 18.546875 C 73.988281 18.804688 73.546875 18.929688 73.007812 18.929688 C 72.472656 18.929688 72 18.78125 71.59375 18.488281 C 71.191406 18.191406 70.988281 17.769531 70.988281 17.214844 C 70.988281 16.804688 71.105469 16.460938 71.335938 16.1875 C 71.820312 15.625 72.914062 15.34375 74.617188 15.34375 C 74.710938 15.34375 74.808594 15.34375 74.914062 15.34375 L 74.914062 14.695312 C 74.914062 14.003906 74.796875 13.480469 74.5625 13.128906 C 74.332031 12.777344 73.929688 12.601562 73.355469 12.601562 C 72.785156 12.601562 72.363281 12.722656 72.097656 12.957031 C 71.832031 13.195312 71.699219 13.441406 71.699219 13.695312 C 71.699219 13.773438 71.734375 13.816406 71.808594 13.816406 C 71.878906 13.816406 71.921875 13.773438 71.929688 13.695312 C 71.984375 13.46875 72.15625 13.351562 72.449219 13.351562 C 72.636719 13.351562 72.789062 13.421875 72.898438 13.558594 C 73.011719 13.695312 73.066406 13.859375 73.066406 14.058594 C 73.066406 14.257812 72.996094 14.421875 72.851562 14.558594 C 72.710938 14.695312 72.527344 14.761719 72.300781 14.761719 C 72.070312 14.761719 71.875 14.671875 71.707031 14.492188 C 71.539062 14.3125 71.453125 14.089844 71.453125 13.828125 C 71.453125 13.335938 71.65625 12.964844 72.0625 12.714844 C 72.464844 12.464844 72.953125 12.339844 73.53125 12.339844 Z M 74.914062 16.464844 L 74.914062 15.582031 C 74.828125 15.582031 74.691406 15.582031 74.507812 15.582031 C 74.320312 15.582031 74.101562 15.59375 73.847656 15.621094 C 73.59375 15.648438 73.332031 15.710938 73.066406 15.816406 C 72.515625 16.019531 72.238281 16.46875 72.238281 17.164062 C 72.238281 17.585938 72.339844 17.921875 72.539062 18.179688 C 72.734375 18.433594 73.054688 18.558594 73.492188 18.558594 C 73.933594 18.558594 74.277344 18.359375 74.53125 17.953125 C 74.785156 17.550781 74.914062 17.054688 74.914062 16.464844 Z M 79.714844 9.398438 L 79.714844 18.46875 L 80.566406 18.46875 L 80.566406 18.667969 L 77.714844 18.667969 L 77.714844 18.46875 L 78.566406 18.46875 L 78.566406 9.769531 L 77.648438 9.769531 L 77.648438 9.570312 L 77.921875 9.570312 C 78.589844 9.570312 79.191406 9.511719 79.714844 9.398438 Z M 89.65625 18.324219 L 89.65625 14.921875 L 88.714844 14.921875 L 88.714844 14.710938 L 91.941406 14.710938 L 91.941406 14.921875 L 90.996094 14.921875 L 90.996094 18.558594 C 90.832031 18.5 90.636719 18.46875 90.402344 18.46875 C 90.171875 18.46875 89.804688 18.546875 89.300781 18.699219 C 88.796875 18.851562 88.355469 18.929688 87.976562 18.929688 C 86.875 18.929688 86.019531 18.484375 85.40625 17.59375 C 84.796875 16.699219 84.492188 15.628906 84.492188 14.375 C 84.492188 13.121094 84.8125 12.050781 85.453125 11.164062 C 86.09375 10.277344 86.957031 9.835938 88.039062 9.835938 C 88.429688 9.835938 88.863281 9.910156 89.34375 10.058594 C 89.828125 10.207031 90.105469 10.28125 90.183594 10.28125 C 90.433594 10.28125 90.578125 10.132812 90.621094 9.835938 L 90.777344 9.835938 L 90.777344 12.71875 L 90.570312 12.71875 C 90.441406 11.921875 90.179688 11.28125 89.785156 10.804688 C 89.386719 10.324219 88.847656 10.082031 88.15625 10.082031 C 87.339844 10.082031 86.78125 10.441406 86.480469 11.152344 C 86.230469 11.757812 86.09375 12.558594 86.066406 13.550781 C 86.066406 13.777344 86.066406 14.125 86.066406 14.59375 C 86.066406 15.058594 86.09375 15.503906 86.144531 15.9375 C 86.195312 16.367188 86.289062 16.804688 86.425781 17.242188 C 86.566406 17.679688 86.785156 18.023438 87.085938 18.265625 C 87.386719 18.503906 87.773438 18.625 88.246094 18.625 C 88.71875 18.625 89.191406 18.523438 89.65625 18.324219 Z M 97.441406 13.339844 C 97.441406 13.113281 97.359375 12.921875 97.195312 12.773438 C 97.03125 12.625 96.8125 12.550781 96.535156 12.550781 C 96.257812 12.550781 96.003906 12.660156 95.765625 12.882812 C 95.53125 13.109375 95.347656 13.402344 95.21875 13.761719 C 94.984375 14.457031 94.871094 15.207031 94.871094 16.015625 L 94.871094 18.46875 L 95.8125 18.46875 L 95.8125 18.667969 L 92.871094 18.667969 L 92.871094 18.46875 L 93.722656 18.46875 L 93.722656 12.800781 L 92.804688 12.800781 L 92.804688 12.601562 L 93.074219 12.601562 C 93.765625 12.601562 94.371094 12.546875 94.894531 12.429688 L 94.894531 13.800781 L 94.972656 13.800781 C 95.335938 12.828125 95.878906 12.339844 96.601562 12.339844 C 96.917969 12.339844 97.179688 12.441406 97.378906 12.648438 C 97.582031 12.855469 97.683594 13.109375 97.683594 13.410156 C 97.683594 13.714844 97.601562 13.957031 97.433594 14.136719 C 97.265625 14.316406 97.066406 14.40625 96.839844 14.40625 C 96.609375 14.40625 96.425781 14.339844 96.28125 14.203125 C 96.140625 14.066406 96.070312 13.902344 96.070312 13.703125 C 96.070312 13.503906 96.128906 13.339844 96.238281 13.203125 C 96.351562 13.066406 96.5 13 96.691406 13 C 96.984375 13 97.15625 13.113281 97.207031 13.339844 C 97.222656 13.417969 97.265625 13.460938 97.335938 13.460938 C 97.40625 13.460938 97.441406 13.417969 97.441406 13.339844 Z M 100.703125 12.339844 C 101.730469 12.339844 102.40625 12.574219 102.738281 13.042969 C 103.070312 13.515625 103.234375 14.332031 103.234375 15.503906 L 103.234375 17.835938 C 103.234375 18.195312 103.3125 18.375 103.46875 18.375 C 103.785156 18.375 103.996094 17.871094 104.101562 16.859375 L 104.332031 16.886719 C 104.203125 18.25 103.769531 18.929688 103.027344 18.929688 C 102.8125 18.929688 102.648438 18.851562 102.53125 18.691406 C 102.414062 18.535156 102.34375 18.359375 102.3125 18.171875 C 102.28125 17.984375 102.269531 17.746094 102.269531 17.464844 L 102.1875 17.464844 C 102.078125 17.933594 101.851562 18.292969 101.503906 18.546875 C 101.160156 18.804688 100.71875 18.929688 100.183594 18.929688 C 99.644531 18.929688 99.171875 18.78125 98.769531 18.488281 C 98.363281 18.191406 98.160156 17.769531 98.160156 17.214844 C 98.160156 16.804688 98.277344 16.460938 98.511719 16.1875 C 98.992188 15.625 100.085938 15.34375 101.789062 15.34375 C 101.882812 15.34375 101.984375 15.34375 102.085938 15.34375 L 102.085938 14.695312 C 102.085938 14.003906 101.96875 13.480469 101.738281 13.128906 C 101.503906 12.777344 101.101562 12.601562 100.53125 12.601562 C 99.957031 12.601562 99.539062 12.722656 99.273438 12.957031 C 99.003906 13.195312 98.871094 13.441406 98.871094 13.695312 C 98.871094 13.773438 98.910156 13.816406 98.980469 13.816406 C 99.054688 13.816406 99.09375 13.773438 99.105469 13.695312 C 99.15625 13.46875 99.328125 13.351562 99.621094 13.351562 C 99.808594 13.351562 99.960938 13.421875 100.074219 13.558594 C 100.183594 13.695312 100.238281 13.859375 100.238281 14.058594 C 100.238281 14.257812 100.167969 14.421875 100.027344 14.558594 C 99.886719 14.695312 99.699219 14.761719 99.472656 14.761719 C 99.246094 14.761719 99.046875 14.671875 98.878906 14.492188 C 98.710938 14.3125 98.625 14.089844 98.625 13.828125 C 98.625 13.335938 98.828125 12.964844 99.234375 12.714844 C 99.636719 12.464844 100.128906 12.339844 100.703125 12.339844 Z M 102.085938 16.464844 L 102.085938 15.582031 C 102 15.582031 101.863281 15.582031 101.679688 15.582031 C 101.496094 15.582031 101.273438 15.59375 101.023438 15.621094 C 100.765625 15.648438 100.507812 15.710938 100.238281 15.816406 C 99.6875 16.019531 99.414062 16.46875 99.414062 17.164062 C 99.414062 17.585938 99.511719 17.921875 99.710938 18.179688 C 99.910156 18.433594 100.226562 18.558594 100.667969 18.558594 C 101.105469 18.558594 101.453125 18.359375 101.703125 17.953125 C 101.960938 17.550781 102.085938 17.054688 102.085938 16.464844 Z M 106.824219 17.847656 L 106.824219 21.304688 L 107.675781 21.304688 L 107.675781 21.5 L 104.824219 21.5 L 104.824219 21.304688 L 105.675781 21.304688 L 105.675781 12.800781 L 104.757812 12.800781 L 104.757812 12.601562 L 105.027344 12.601562 C 105.699219 12.601562 106.300781 12.546875 106.824219 12.429688 L 106.824219 13.800781 L 106.902344 13.800781 C 107.054688 13.355469 107.285156 13 107.59375 12.734375 C 107.898438 12.472656 108.261719 12.339844 108.683594 12.339844 C 109.457031 12.339844 110.03125 12.648438 110.40625 13.265625 C 110.78125 13.886719 110.96875 14.671875 110.96875 15.621094 C 110.96875 16.570312 110.773438 17.359375 110.386719 17.988281 C 110 18.617188 109.40625 18.929688 108.605469 18.929688 C 107.804688 18.929688 107.238281 18.570312 106.902344 17.847656 Z M 106.796875 15.621094 L 106.796875 16.097656 C 106.796875 16.78125 106.925781 17.363281 107.1875 17.84375 C 107.445312 18.320312 107.847656 18.558594 108.398438 18.558594 C 108.992188 18.558594 109.367188 18.21875 109.523438 17.53125 C 109.652344 16.976562 109.714844 16.425781 109.714844 15.871094 C 109.714844 15.316406 109.699219 14.894531 109.671875 14.605469 C 109.640625 14.316406 109.585938 14.015625 109.503906 13.703125 C 109.421875 13.390625 109.285156 13.144531 109.089844 12.96875 C 108.894531 12.792969 108.664062 12.707031 108.390625 12.707031 C 108.121094 12.707031 107.878906 12.804688 107.667969 13.003906 C 107.457031 13.203125 107.292969 13.453125 107.171875 13.761719 C 106.921875 14.386719 106.796875 15.003906 106.796875 15.621094 Z M 114.207031 18.46875 L 115.058594 18.46875 L 115.058594 18.667969 L 112.207031 18.667969 L 112.207031 18.46875 L 113.058594 18.46875 L 113.058594 9.769531 L 112.144531 9.769531 L 112.144531 9.570312 L 112.414062 9.570312 C 113.09375 9.570312 113.699219 9.511719 114.234375 9.398438 L 114.234375 13.75 L 114.3125 13.75 C 114.457031 13.328125 114.707031 12.984375 115.054688 12.726562 C 115.402344 12.46875 115.792969 12.339844 116.222656 12.339844 C 116.96875 12.339844 117.484375 12.566406 117.757812 13.015625 C 118.035156 13.46875 118.171875 14.144531 118.171875 15.042969 L 118.171875 18.46875 L 119.023438 18.46875 L 119.023438 18.667969 L 116.171875 18.667969 L 116.171875 18.46875 L 117.023438 18.46875 L 117.023438 15.222656 C 117.023438 14.230469 116.949219 13.578125 116.804688 13.261719 C 116.734375 13.121094 116.628906 12.992188 116.484375 12.878906 C 116.34375 12.765625 116.136719 12.707031 115.859375 12.707031 C 115.585938 12.707031 115.324219 12.808594 115.078125 13.011719 C 114.832031 13.210938 114.652344 13.488281 114.53125 13.839844 C 114.316406 14.464844 114.207031 15.210938 114.207031 16.082031 Z M 122.507812 12.339844 C 123.816406 12.339844 124.472656 12.792969 124.472656 13.695312 C 124.472656 13.960938 124.386719 14.179688 124.21875 14.363281 C 124.050781 14.542969 123.851562 14.632812 123.625 14.632812 C 123.398438 14.632812 123.210938 14.5625 123.070312 14.429688 C 122.929688 14.292969 122.859375 14.125 122.859375 13.925781 C 122.859375 13.730469 122.914062 13.5625 123.023438 13.425781 C 123.136719 13.289062 123.289062 13.222656 123.476562 13.222656 C 123.769531 13.222656 123.941406 13.335938 123.992188 13.5625 C 124 13.644531 124.042969 13.683594 124.117188 13.683594 C 124.1875 13.683594 124.226562 13.644531 124.226562 13.5625 C 124.226562 13.320312 124.105469 13.097656 123.871094 12.898438 C 123.632812 12.703125 123.273438 12.601562 122.785156 12.601562 C 122.300781 12.601562 121.898438 12.695312 121.585938 12.878906 C 121.273438 13.0625 121.113281 13.320312 121.113281 13.648438 C 121.113281 13.980469 121.238281 14.246094 121.488281 14.449219 C 121.738281 14.648438 122.039062 14.816406 122.390625 14.949219 C 122.746094 15.078125 123.101562 15.21875 123.457031 15.363281 C 123.8125 15.507812 124.117188 15.71875 124.367188 15.988281 C 124.617188 16.261719 124.742188 16.589844 124.742188 16.976562 C 124.742188 17.636719 124.511719 18.128906 124.050781 18.449219 C 123.589844 18.769531 123.019531 18.929688 122.339844 18.929688 C 121.660156 18.929688 121.113281 18.808594 120.699219 18.558594 C 120.289062 18.3125 120.082031 17.941406 120.082031 17.441406 C 120.082031 17.175781 120.164062 16.953125 120.332031 16.773438 C 120.5 16.59375 120.699219 16.503906 120.925781 16.503906 C 121.15625 16.503906 121.339844 16.570312 121.484375 16.707031 C 121.625 16.84375 121.695312 17.011719 121.695312 17.210938 C 121.695312 17.40625 121.640625 17.574219 121.527344 17.710938 C 121.414062 17.847656 121.265625 17.914062 121.074219 17.914062 C 120.78125 17.914062 120.609375 17.800781 120.558594 17.570312 C 120.550781 17.492188 120.511719 17.453125 120.4375 17.453125 C 120.363281 17.453125 120.324219 17.492188 120.324219 17.570312 C 120.324219 17.835938 120.472656 18.082031 120.761719 18.316406 C 121.046875 18.550781 121.476562 18.667969 122.042969 18.667969 C 123.292969 18.667969 123.914062 18.253906 123.914062 17.425781 C 123.914062 16.917969 123.488281 16.503906 122.636719 16.1875 C 122.277344 16.054688 121.917969 15.917969 121.566406 15.773438 C 121.214844 15.625 120.910156 15.417969 120.664062 15.144531 C 120.414062 14.875 120.289062 14.542969 120.289062 14.15625 C 120.289062 13.59375 120.503906 13.152344 120.9375 12.824219 C 121.375 12.5 121.898438 12.339844 122.507812 12.339844 Z M 122.507812 12.339844 " fill-opacity="1" fill-rule="nonzero"/></g><g clip-path="url(#d11d2fe288)"><g clip-path="url(#055e835f9c)"><path fill="url(#177a87d703)" d="M 125.289062 21.320312 L 125.289062 7.132812 L 145.398438 7.132812 L 145.398438 21.320312 Z M 125.289062 21.320312 " fill-rule="nonzero"/></g></g><path fill="#ffffff" d="M 143.058594 8.453125 C 143.058594 8.453125 140.875 7.875 139.835938 10.628906 C 138.921875 10.242188 137.375 9.660156 135.277344 9.5625 C 135.667969 9.363281 137.9375 9.4375 139.582031 10 C 139.921875 9.359375 140.972656 7.527344 143.058594 8.453125 Z M 127.957031 11.402344 C 127.542969 8.09375 130.855469 7.539062 130.855469 7.539062 C 127.308594 7.253906 127.539062 11.128906 127.957031 11.402344 Z M 127.957031 11.402344 " fill-opacity="1" fill-rule="nonzero"/><g clip-path="url(#03d109b742)"><path fill="#ffffff" d="M 141.546875 21.5 L 129.363281 21.5 C 129.351562 21.097656 129.363281 19.941406 129.769531 18.703125 C 131.050781 18.203125 134.527344 16.503906 134.957031 14.761719 C 135.144531 14.757812 135.746094 14.824219 135.945312 14.832031 C 141.515625 15.085938 141.71875 19.574219 141.546875 21.5 Z M 135.792969 15.054688 C 135.648438 14.808594 135.367188 15.597656 135.792969 15.484375 C 136.21875 15.367188 135.9375 15.304688 135.792969 15.054688 Z M 135.792969 15.054688 " fill-opacity="1" fill-rule="nonzero"/></g><g clip-path="url(#61fe8800bd)"><g mask="url(#7f38978b66)"><g transform="matrix(1, 0, 0, 1, 125, 10)"><g clip-path="url(#7278b3f6e2)"><g clip-path="url(#c6ea7711b1)"><path fill="#4fa853" d="M 1.105469 9.488281 C 1.050781 9.425781 1.050781 9.171875 0.996094 9.101562 C 0.984375 9.074219 0.96875 9.035156 0.960938 8.992188 C 0.449219 7.164062 1.167969 5.8125 1.167969 5.8125 C 1.167969 5.8125 2.078125 10.941406 8.753906 10.996094 C 9.261719 10.984375 9.800781 10.953125 10.371094 10.90625 C 17.304688 10.3125 17.964844 3.949219 17.808594 3.3125 C 18.769531 2.746094 19.371094 1.671875 19.789062 0.859375 C 19.789062 0.859375 20.21875 1.613281 19.457031 2.5 C 19.21875 2.78125 19.0625 3.089844 18.871094 3.230469 C 19.058594 3.417969 19.476562 3.804688 19.695312 4.53125 C 21.109375 9.320312 19.460938 11.5 19.460938 11.5 L 2.171875 11.5 C 1.585938 10.804688 1.257812 10.089844 1.105469 9.488281 Z M 10.472656 4.472656 C 10.472656 4.472656 10.253906 3.996094 8.914062 5.058594 C 7.574219 6.125 4.738281 7.542969 4.148438 7.835938 C 3.558594 8.132812 3.453125 9.078125 4.421875 8.792969 C 5.394531 8.503906 10.664062 6.078125 10.472656 4.472656 Z M 10.472656 4.472656 " fill-opacity="1" fill-rule="nonzero"/></g></g></g></g></g><g clip-path="url(#5d4eb17cb0)"><path fill="#9cd03f" d="M 126.015625 17.039062 C 126.015625 17.039062 126.308594 20.183594 128.785156 21.5 C 128.46875 21.5 127.644531 21.5 127.644531 21.5 C 127.644531 21.5 125.578125 20.058594 126.015625 17.039062 Z M 145.085938 17.039062 C 145.085938 17.039062 145.089844 20.007812 143.058594 21.5 C 144.117188 21.5 144.457031 21.5 144.457031 21.5 C 144.457031 21.5 145.804688 19.832031 145.085938 17.039062 Z M 145.085938 17.039062 " fill-opacity="1" fill-rule="nonzero"/></g><g clip-path="url(#e6a5a3784b)"><path fill="#0e4b11" d="M 134.144531 7.898438 C 134.335938 7.539062 134.449219 7.335938 134.820312 7.460938 C 135.230469 7.597656 134.949219 8.628906 133.839844 8.511719 C 133.589844 8.34375 133.949219 8.257812 134.144531 7.898438 Z M 138.988281 8.882812 C 139.273438 8.773438 138.941406 8.613281 138.832031 8.21875 C 138.722656 7.824219 138.660156 7.601562 138.269531 7.640625 C 137.839844 7.683594 137.882812 8.75 138.988281 8.882812 Z M 137.667969 12.058594 C 136.6875 11.828125 137.0625 12.390625 135.90625 12.324219 C 135.230469 12.289062 135.230469 11.621094 134.265625 11.882812 C 133.765625 12.019531 133.402344 12.929688 133.464844 13.851562 C 131.671875 14.421875 129.140625 16.054688 128.953125 16.15625 C 127.902344 16.71875 128.777344 16.585938 128.953125 16.449219 C 129.980469 16.191406 134.21875 13.234375 134.8125 14.160156 C 135.476562 15.203125 132.882812 16.960938 131.101562 17.839844 C 129.324219 18.722656 129.179688 18.953125 129.605469 18.828125 C 132.617188 17.667969 133.890625 16.546875 134.644531 15.710938 C 134.917969 15.835938 135.25 15.910156 135.644531 15.914062 C 138.519531 15.953125 138.644531 12.285156 137.667969 12.058594 Z M 129.738281 9.664062 C 129.542969 9.714844 130.21875 10.183594 131.042969 10.574219 C 130.230469 10.480469 129.390625 10.945312 129.46875 11.144531 C 129.59375 11.238281 131.976562 11.042969 131.984375 10.9375 C 132.089844 10.824219 131.0625 9.304688 129.738281 9.664062 Z M 142.839844 10.539062 C 143.027344 10.605469 142.324219 11.011719 141.460938 11.332031 C 142.28125 11.3125 143.078125 11.847656 142.984375 12.039062 C 142.847656 12.121094 140.492188 11.722656 140.496094 11.617188 C 140.398438 11.496094 141.550781 10.066406 142.839844 10.539062 Z M 143.78125 13.253906 C 143.804688 13.28125 143.824219 13.300781 143.832031 13.3125 C 143.894531 13.414062 144.363281 14.144531 144.679688 15.007812 C 145.078125 16.085938 145.113281 16.953125 145.15625 17.871094 C 145.226562 19.449219 144.785156 20.726562 144.292969 21.488281 L 144.820312 21.488281 C 145.164062 20.832031 145.496094 19.742188 145.503906 17.976562 C 145.523438 14.742188 144.070312 13.144531 144.070312 13.144531 C 144.355469 12.910156 144.589844 12.625 144.769531 12.300781 C 145.152344 11.613281 145.242188 10.8125 145.019531 10.054688 C 144.800781 9.296875 144.300781 8.667969 143.609375 8.289062 C 142.917969 7.90625 142.121094 7.820312 141.359375 8.039062 C 140.601562 8.257812 139.976562 8.761719 139.59375 9.453125 C 139.53125 9.558594 139.476562 9.667969 139.4375 9.777344 C 139.417969 9.769531 139.398438 9.761719 139.375 9.757812 C 136.71875 8.855469 134.042969 9.269531 133.414062 9.382812 C 133.410156 9.375 133.410156 9.371094 133.40625 9.363281 C 132.957031 7.796875 131.3125 6.894531 129.742188 7.34375 C 128.984375 7.5625 128.355469 8.066406 127.972656 8.757812 C 127.589844 9.449219 127.503906 10.246094 127.722656 11.003906 C 127.820312 11.324219 127.957031 11.625 128.148438 11.890625 C 127.582031 12.28125 126.253906 13.464844 125.78125 16.078125 C 125.394531 18.226562 125.902344 19.785156 126.417969 20.625 C 126.652344 21.007812 126.886719 21.285156 127.105469 21.496094 L 127.648438 21.496094 C 127.417969 21.308594 127.023438 20.898438 126.691406 20.363281 C 126.199219 19.574219 125.757812 18.175781 126.132812 16.117188 C 126.625 13.410156 127.960938 12.351562 128.40625 12.070312 C 128.574219 12.171875 128.746094 12.304688 128.78125 12.257812 C 128.820312 12.207031 128.484375 11.835938 128.441406 11.789062 C 128.246094 11.527344 128.097656 11.234375 128.007812 10.921875 C 127.597656 9.507812 128.457031 8.007812 129.867188 7.601562 C 130.167969 7.515625 130.488281 7.480469 130.785156 7.496094 C 131.882812 7.5625 132.8125 8.332031 133.132812 9.441406 C 133.144531 9.488281 133.167969 9.582031 133.167969 9.582031 C 133.1875 9.664062 133.265625 9.710938 133.34375 9.691406 C 133.375 9.683594 136.546875 9.019531 139.292969 10.03125 C 139.300781 10.03125 139.304688 10.035156 139.3125 10.035156 C 139.34375 10.042969 139.378906 10.054688 139.414062 10.066406 C 139.4375 10.074219 139.460938 10.085938 139.488281 10.089844 C 139.5625 10.109375 139.640625 10.070312 139.664062 10 C 139.707031 9.871094 139.773438 9.726562 139.851562 9.585938 C 140.199219 8.960938 140.679688 8.527344 141.359375 8.332031 C 142.046875 8.132812 142.835938 8.210938 143.460938 8.554688 C 144.082031 8.898438 144.460938 9.394531 144.660156 10.078125 C 144.859375 10.761719 144.859375 11.542969 144.523438 12.164062 C 144.363281 12.453125 144.152344 12.707031 143.894531 12.921875 C 143.882812 12.929688 143.5 13.210938 143.433594 13.3125 C 143.390625 13.371094 143.59375 13.320312 143.78125 13.253906 Z M 143.78125 13.253906 " fill-opacity="1" fill-rule="nonzero"/></g><g clip-path="url(#222be79135)"><path fill="#e1adcd" d="M 132.289062 12.453125 C 132.265625 12.753906 131.71875 12.957031 131.0625 12.910156 C 130.410156 12.859375 129.898438 12.578125 129.921875 12.273438 C 129.945312 11.972656 130.492188 11.769531 131.148438 11.820312 C 131.800781 11.867188 132.3125 12.152344 132.289062 12.453125 Z M 140.863281 12.554688 C 140.207031 12.503906 139.660156 12.707031 139.636719 13.007812 C 139.613281 13.308594 140.128906 13.589844 140.777344 13.644531 C 141.433594 13.691406 141.980469 13.488281 142.003906 13.1875 C 142.027344 12.882812 141.515625 12.601562 140.863281 12.554688 Z M 134.816406 15.472656 C 134.816406 15.472656 135.355469 15.722656 135.898438 15.65625 C 137.660156 15.4375 137.960938 13.972656 137.960938 13.488281 C 137.398438 13.371094 136.199219 13.25 134.839844 13.882812 C 135.632812 14.402344 134.816406 15.472656 134.816406 15.472656 Z M 128.042969 7.167969 C 128.09375 7.226562 128.179688 7.238281 128.242188 7.195312 C 128.3125 7.148438 128.335938 7.054688 128.289062 6.980469 L 127.007812 4.953125 C 126.996094 4.9375 126.984375 4.917969 126.96875 4.902344 C 126.832031 4.753906 126.601562 4.742188 126.453125 4.878906 C 126.304688 5.015625 126.292969 5.246094 126.429688 5.394531 Z M 128.535156 6.792969 C 128.558594 6.871094 128.632812 6.921875 128.710938 6.910156 C 128.800781 6.898438 128.855469 6.816406 128.84375 6.730469 L 128.640625 5.328125 C 128.640625 5.320312 128.636719 5.308594 128.636719 5.300781 C 128.601562 5.171875 128.46875 5.097656 128.339844 5.128906 C 128.214844 5.164062 128.136719 5.296875 128.167969 5.425781 Z M 127.875 7.589844 C 127.917969 7.515625 127.898438 7.417969 127.824219 7.371094 L 126.464844 6.53125 C 126.457031 6.527344 126.453125 6.523438 126.445312 6.519531 C 126.328125 6.460938 126.191406 6.511719 126.128906 6.625 C 126.074219 6.742188 126.121094 6.882812 126.238281 6.941406 L 127.671875 7.648438 C 127.742188 7.679688 127.835938 7.65625 127.875 7.589844 Z M 127.875 7.589844 " fill-opacity="1" fill-rule="nonzero"/></g><g clip-path="url(#f52457f05b)"><path fill="#0e4b11" d="M 127.816406 7.769531 C 127.773438 7.769531 127.707031 7.753906 127.671875 7.734375 L 126.222656 7.050781 C 126.046875 6.960938 125.980469 6.753906 126.0625 6.578125 C 126.101562 6.496094 126.175781 6.429688 126.265625 6.402344 C 126.355469 6.371094 126.449219 6.378906 126.535156 6.417969 C 126.546875 6.421875 126.554688 6.429688 126.5625 6.433594 L 127.917969 7.3125 C 128.046875 7.394531 128.089844 7.527344 128.011719 7.65625 C 127.953125 7.738281 127.90625 7.769531 127.816406 7.769531 Z M 126.378906 6.617188 C 126.367188 6.617188 126.355469 6.621094 126.335938 6.625 C 126.308594 6.636719 126.28125 6.660156 126.269531 6.6875 C 126.242188 6.746094 126.265625 6.8125 126.320312 6.847656 L 127.792969 7.566406 C 127.816406 7.578125 127.835938 7.578125 127.84375 7.554688 C 127.851562 7.535156 127.847656 7.515625 127.828125 7.503906 L 126.4375 6.632812 C 126.433594 6.632812 126.429688 6.628906 126.425781 6.628906 C 126.414062 6.621094 126.394531 6.617188 126.378906 6.617188 Z M 128.199219 7.332031 C 128.121094 7.332031 128.0625 7.296875 128.011719 7.242188 L 126.378906 5.484375 C 126.199219 5.289062 126.214844 4.980469 126.410156 4.804688 C 126.605469 4.625 126.914062 4.644531 127.089844 4.839844 C 127.113281 4.863281 127.128906 4.886719 127.136719 4.902344 L 128.402344 6.964844 C 128.480469 7.09375 128.453125 7.238281 128.34375 7.296875 C 128.300781 7.324219 128.246094 7.332031 128.199219 7.332031 Z M 126.734375 4.910156 C 126.671875 4.910156 126.613281 4.929688 126.566406 4.972656 C 126.464844 5.066406 126.457031 5.222656 126.550781 5.324219 L 128.171875 7.09375 C 128.1875 7.109375 128.203125 7.113281 128.214844 7.105469 C 128.234375 7.09375 128.230469 7.078125 128.21875 7.058594 L 126.941406 5.023438 C 126.933594 5.011719 126.925781 4.996094 126.917969 4.984375 C 126.863281 4.9375 126.800781 4.910156 126.734375 4.910156 Z M 128.71875 7.035156 C 128.597656 7.035156 128.527344 6.949219 128.496094 6.828125 L 128.089844 5.464844 C 128.039062 5.273438 128.152344 5.078125 128.339844 5.027344 C 128.53125 4.972656 128.730469 5.089844 128.78125 5.277344 C 128.785156 5.289062 128.789062 5.304688 128.789062 5.316406 L 128.953125 6.71875 C 128.964844 6.789062 128.945312 6.871094 128.902344 6.933594 C 128.871094 6.992188 128.832031 7.019531 128.761719 7.035156 C 128.75 7.035156 128.738281 7.035156 128.71875 7.035156 Z M 128.4375 5.246094 C 128.425781 5.246094 128.417969 5.246094 128.40625 5.25 C 128.375 5.257812 128.34375 5.277344 128.328125 5.308594 C 128.3125 5.335938 128.308594 5.375 128.316406 5.40625 C 128.316406 5.40625 128.6875 6.765625 128.6875 6.773438 C 128.691406 6.792969 128.710938 6.804688 128.730469 6.800781 C 128.746094 6.796875 128.75 6.792969 128.753906 6.789062 C 128.757812 6.785156 128.761719 6.773438 128.757812 6.761719 L 128.5625 5.355469 C 128.5625 5.351562 128.5625 5.347656 128.558594 5.339844 C 128.539062 5.285156 128.492188 5.246094 128.4375 5.246094 Z M 128.4375 5.246094 " fill-opacity="1" fill-rule="nonzero"/></g></svg>