<svg xmlns="http://www.w3.org/2000/svg" xmlns:xlink="http://www.w3.org/1999/xlink" width="400" zoomAndPan="magnify" viewBox="0 0 300 74.999997" height="100" preserveAspectRatio="xMidYMid meet" version="1.0"><defs><filter x="0%" y="0%" width="100%" height="100%" id="12b300fab1"><feColorMatrix values="0 0 0 0 1 0 0 0 0 1 0 0 0 0 1 0 0 0 1 0" color-interpolation-filters="sRGB"/></filter><clipPath id="0a870255d7"><path d="M 2 26.855469 L 255 26.855469 L 255 52.355469 L 2 52.355469 Z M 2 26.855469 " clip-rule="nonzero"/></clipPath><clipPath id="4531851f60"><path d="M 255 22 L 297 22 L 297 52.152344 L 255 52.152344 Z M 255 22 " clip-rule="nonzero"/></clipPath><clipPath id="3672e29e09"><path d="M 259.1875 52.09375 L 294.855469 52.09375 C 294.855469 52.09375 296.34375 50.207031 296.535156 47.21875 C 296.808594 42.988281 295.945312 39.925781 295.945312 39.925781 C 295.269531 36.605469 293.78125 35 293.78125 35 C 293.78125 35 293.714844 34.933594 293.605469 34.816406 C 294.070312 34.464844 294.496094 34.042969 294.855469 33.550781 C 294.855469 33.550781 295.910156 30.945312 295.902344 30.023438 C 295.894531 29.140625 294.855469 26.660156 294.855469 26.660156 C 294.363281 25.976562 293.714844 25.394531 292.929688 24.960938 C 290.09375 23.394531 286.515625 24.429688 284.949219 27.273438 C 284.789062 27.566406 284.640625 27.882812 284.53125 28.183594 C 284.390625 28.140625 284.265625 28.089844 284.132812 28.066406 C 277.824219 25.910156 271.539062 27.359375 271.539062 27.359375 C 271.539062 27.359375 271.488281 27.160156 271.457031 27.042969 C 270.558594 23.921875 267.296875 22.132812 264.183594 23.03125 C 261.0625 23.929688 259.269531 27.191406 260.171875 30.304688 C 260.386719 31.0625 260.746094 31.734375 261.210938 32.320312 C 260.070312 33.027344 257.074219 35.390625 256.132812 41.050781 C 254.867188 48.582031 258.503906 51.605469 259.1875 52.09375 Z M 284.175781 46.886719 C 283.757812 47.957031 283.558594 47.527344 283.515625 46.84375 C 283.476562 46.167969 284.332031 46.476562 284.175781 46.886719 Z M 284.175781 46.886719 " clip-rule="nonzero"/></clipPath><linearGradient x1="247.74001" gradientTransform="matrix(0.0832342, 0, 0, -0.0832342, 255.600586, 40.157483)" y1="-143.423992" x2="247.74001" gradientUnits="userSpaceOnUse" y2="216.576" id="13636a4aa5"><stop stop-opacity="1" stop-color="rgb(61.199951%, 81.599426%, 24.699402%)" offset="0"/><stop stop-opacity="1" stop-color="rgb(61.079407%, 81.536865%, 24.729919%)" offset="0.0078125"/><stop stop-opacity="1" stop-color="rgb(60.839844%, 81.413269%, 24.790955%)" offset="0.015625"/><stop stop-opacity="1" stop-color="rgb(60.598755%, 81.286621%, 24.853516%)" offset="0.0234375"/><stop stop-opacity="1" stop-color="rgb(60.357666%, 81.161499%, 24.916077%)" offset="0.03125"/><stop stop-opacity="1" stop-color="rgb(60.116577%, 81.036377%, 24.978638%)" offset="0.0390625"/><stop stop-opacity="1" stop-color="rgb(59.875488%, 80.911255%, 25.041199%)" offset="0.046875"/><stop stop-opacity="1" stop-color="rgb(59.634399%, 80.786133%, 25.102234%)" offset="0.0546875"/><stop stop-opacity="1" stop-color="rgb(59.393311%, 80.659485%, 25.164795%)" offset="0.0625"/><stop stop-opacity="1" stop-color="rgb(59.152222%, 80.534363%, 25.227356%)" offset="0.0703125"/><stop stop-opacity="1" stop-color="rgb(58.911133%, 80.409241%, 25.289917%)" offset="0.078125"/><stop stop-opacity="1" stop-color="rgb(58.668518%, 80.284119%, 25.352478%)" offset="0.0859375"/><stop stop-opacity="1" stop-color="rgb(58.427429%, 80.158997%, 25.415039%)" offset="0.09375"/><stop stop-opacity="1" stop-color="rgb(58.18634%, 80.032349%, 25.476074%)" offset="0.101562"/><stop stop-opacity="1" stop-color="rgb(57.945251%, 79.907227%, 25.538635%)" offset="0.109375"/><stop stop-opacity="1" stop-color="rgb(57.704163%, 79.782104%, 25.601196%)" offset="0.117187"/><stop stop-opacity="1" stop-color="rgb(57.463074%, 79.656982%, 25.663757%)" offset="0.125"/><stop stop-opacity="1" stop-color="rgb(57.221985%, 79.53186%, 25.726318%)" offset="0.132812"/><stop stop-opacity="1" stop-color="rgb(56.980896%, 79.405212%, 25.788879%)" offset="0.140625"/><stop stop-opacity="1" stop-color="rgb(56.739807%, 79.28009%, 25.849915%)" offset="0.148438"/><stop stop-opacity="1" stop-color="rgb(56.498718%, 79.154968%, 25.912476%)" offset="0.15625"/><stop stop-opacity="1" stop-color="rgb(56.256104%, 79.029846%, 25.975037%)" offset="0.164062"/><stop stop-opacity="1" stop-color="rgb(56.015015%, 78.904724%, 26.037598%)" offset="0.171875"/><stop stop-opacity="1" stop-color="rgb(55.773926%, 78.779602%, 26.100159%)" offset="0.179688"/><stop stop-opacity="1" stop-color="rgb(55.532837%, 78.652954%, 26.16272%)" offset="0.1875"/><stop stop-opacity="1" stop-color="rgb(55.291748%, 78.527832%, 26.223755%)" offset="0.195312"/><stop stop-opacity="1" stop-color="rgb(55.050659%, 78.40271%, 26.286316%)" offset="0.203125"/><stop stop-opacity="1" stop-color="rgb(54.80957%, 78.277588%, 26.348877%)" offset="0.210938"/><stop stop-opacity="1" stop-color="rgb(54.568481%, 78.152466%, 26.411438%)" offset="0.21875"/><stop stop-opacity="1" stop-color="rgb(54.327393%, 78.025818%, 26.473999%)" offset="0.226562"/><stop stop-opacity="1" stop-color="rgb(54.086304%, 77.900696%, 26.53656%)" offset="0.234375"/><stop stop-opacity="1" stop-color="rgb(53.843689%, 77.775574%, 26.597595%)" offset="0.242188"/><stop stop-opacity="1" stop-color="rgb(53.6026%, 77.650452%, 26.660156%)" offset="0.25"/><stop stop-opacity="1" stop-color="rgb(53.361511%, 77.52533%, 26.722717%)" offset="0.257812"/><stop stop-opacity="1" stop-color="rgb(53.120422%, 77.398682%, 26.785278%)" offset="0.265625"/><stop stop-opacity="1" stop-color="rgb(52.879333%, 77.27356%, 26.847839%)" offset="0.273437"/><stop stop-opacity="1" stop-color="rgb(52.638245%, 77.148438%, 26.9104%)" offset="0.28125"/><stop stop-opacity="1" stop-color="rgb(52.397156%, 77.023315%, 26.971436%)" offset="0.289062"/><stop stop-opacity="1" stop-color="rgb(52.156067%, 76.898193%, 27.033997%)" offset="0.296875"/><stop stop-opacity="1" stop-color="rgb(51.914978%, 76.771545%, 27.096558%)" offset="0.304687"/><stop stop-opacity="1" stop-color="rgb(51.673889%, 76.646423%, 27.159119%)" offset="0.3125"/><stop stop-opacity="1" stop-color="rgb(51.431274%, 76.521301%, 27.22168%)" offset="0.320312"/><stop stop-opacity="1" stop-color="rgb(51.190186%, 76.396179%, 27.284241%)" offset="0.328125"/><stop stop-opacity="1" stop-color="rgb(50.949097%, 76.271057%, 27.345276%)" offset="0.335937"/><stop stop-opacity="1" stop-color="rgb(50.708008%, 76.144409%, 27.407837%)" offset="0.34375"/><stop stop-opacity="1" stop-color="rgb(50.466919%, 76.019287%, 27.470398%)" offset="0.351562"/><stop stop-opacity="1" stop-color="rgb(50.22583%, 75.894165%, 27.532959%)" offset="0.359375"/><stop stop-opacity="1" stop-color="rgb(49.984741%, 75.769043%, 27.59552%)" offset="0.367187"/><stop stop-opacity="1" stop-color="rgb(49.743652%, 75.643921%, 27.658081%)" offset="0.375"/><stop stop-opacity="1" stop-color="rgb(49.502563%, 75.518799%, 27.719116%)" offset="0.382812"/><stop stop-opacity="1" stop-color="rgb(49.259949%, 75.392151%, 27.781677%)" offset="0.390625"/><stop stop-opacity="1" stop-color="rgb(49.01886%, 75.267029%, 27.844238%)" offset="0.398437"/><stop stop-opacity="1" stop-color="rgb(48.777771%, 75.141907%, 27.906799%)" offset="0.40625"/><stop stop-opacity="1" stop-color="rgb(48.536682%, 75.016785%, 27.96936%)" offset="0.414062"/><stop stop-opacity="1" stop-color="rgb(48.295593%, 74.891663%, 28.031921%)" offset="0.421875"/><stop stop-opacity="1" stop-color="rgb(48.054504%, 74.765015%, 28.092957%)" offset="0.429687"/><stop stop-opacity="1" stop-color="rgb(47.813416%, 74.639893%, 28.155518%)" offset="0.4375"/><stop stop-opacity="1" stop-color="rgb(47.572327%, 74.514771%, 28.218079%)" offset="0.445312"/><stop stop-opacity="1" stop-color="rgb(47.331238%, 74.389648%, 28.28064%)" offset="0.453125"/><stop stop-opacity="1" stop-color="rgb(47.090149%, 74.264526%, 28.343201%)" offset="0.460937"/><stop stop-opacity="1" stop-color="rgb(46.847534%, 74.137878%, 28.405762%)" offset="0.46875"/><stop stop-opacity="1" stop-color="rgb(46.606445%, 74.012756%, 28.466797%)" offset="0.476562"/><stop stop-opacity="1" stop-color="rgb(46.365356%, 73.887634%, 28.529358%)" offset="0.484375"/><stop stop-opacity="1" stop-color="rgb(46.124268%, 73.762512%, 28.591919%)" offset="0.492187"/><stop stop-opacity="1" stop-color="rgb(45.883179%, 73.63739%, 28.65448%)" offset="0.5"/><stop stop-opacity="1" stop-color="rgb(45.64209%, 73.510742%, 28.717041%)" offset="0.507812"/><stop stop-opacity="1" stop-color="rgb(45.401001%, 73.38562%, 28.779602%)" offset="0.515625"/><stop stop-opacity="1" stop-color="rgb(45.159912%, 73.260498%, 28.840637%)" offset="0.523437"/><stop stop-opacity="1" stop-color="rgb(44.918823%, 73.135376%, 28.903198%)" offset="0.53125"/><stop stop-opacity="1" stop-color="rgb(44.677734%, 73.010254%, 28.965759%)" offset="0.539062"/><stop stop-opacity="1" stop-color="rgb(44.43512%, 72.885132%, 29.02832%)" offset="0.546875"/><stop stop-opacity="1" stop-color="rgb(44.194031%, 72.758484%, 29.090881%)" offset="0.554688"/><stop stop-opacity="1" stop-color="rgb(43.952942%, 72.633362%, 29.153442%)" offset="0.5625"/><stop stop-opacity="1" stop-color="rgb(43.711853%, 72.50824%, 29.214478%)" offset="0.570312"/><stop stop-opacity="1" stop-color="rgb(43.470764%, 72.383118%, 29.277039%)" offset="0.578125"/><stop stop-opacity="1" stop-color="rgb(43.229675%, 72.257996%, 29.3396%)" offset="0.585938"/><stop stop-opacity="1" stop-color="rgb(42.988586%, 72.131348%, 29.402161%)" offset="0.59375"/><stop stop-opacity="1" stop-color="rgb(42.747498%, 72.006226%, 29.464722%)" offset="0.601563"/><stop stop-opacity="1" stop-color="rgb(42.506409%, 71.881104%, 29.527283%)" offset="0.609375"/><stop stop-opacity="1" stop-color="rgb(42.26532%, 71.755981%, 29.588318%)" offset="0.617188"/><stop stop-opacity="1" stop-color="rgb(42.022705%, 71.630859%, 29.650879%)" offset="0.625"/><stop stop-opacity="1" stop-color="rgb(41.781616%, 71.504211%, 29.71344%)" offset="0.632812"/><stop stop-opacity="1" stop-color="rgb(41.540527%, 71.379089%, 29.776001%)" offset="0.640625"/><stop stop-opacity="1" stop-color="rgb(41.299438%, 71.253967%, 29.838562%)" offset="0.648437"/><stop stop-opacity="1" stop-color="rgb(41.05835%, 71.128845%, 29.901123%)" offset="0.65625"/><stop stop-opacity="1" stop-color="rgb(40.817261%, 71.003723%, 29.962158%)" offset="0.664062"/><stop stop-opacity="1" stop-color="rgb(40.576172%, 70.877075%, 30.024719%)" offset="0.671875"/><stop stop-opacity="1" stop-color="rgb(40.335083%, 70.751953%, 30.08728%)" offset="0.679688"/><stop stop-opacity="1" stop-color="rgb(40.093994%, 70.626831%, 30.149841%)" offset="0.6875"/><stop stop-opacity="1" stop-color="rgb(39.852905%, 70.501709%, 30.212402%)" offset="0.695312"/><stop stop-opacity="1" stop-color="rgb(39.610291%, 70.376587%, 30.274963%)" offset="0.703125"/><stop stop-opacity="1" stop-color="rgb(39.369202%, 70.249939%, 30.335999%)" offset="0.710938"/><stop stop-opacity="1" stop-color="rgb(39.128113%, 70.124817%, 30.39856%)" offset="0.71875"/><stop stop-opacity="1" stop-color="rgb(38.887024%, 69.999695%, 30.461121%)" offset="0.726563"/><stop stop-opacity="1" stop-color="rgb(38.645935%, 69.874573%, 30.523682%)" offset="0.734375"/><stop stop-opacity="1" stop-color="rgb(38.404846%, 69.749451%, 30.586243%)" offset="0.742188"/><stop stop-opacity="1" stop-color="rgb(38.163757%, 69.624329%, 30.648804%)" offset="0.75"/><stop stop-opacity="1" stop-color="rgb(37.922668%, 69.497681%, 30.709839%)" offset="0.757812"/><stop stop-opacity="1" stop-color="rgb(37.68158%, 69.372559%, 30.7724%)" offset="0.765625"/><stop stop-opacity="1" stop-color="rgb(37.440491%, 69.247437%, 30.834961%)" offset="0.773437"/><stop stop-opacity="1" stop-color="rgb(37.197876%, 69.122314%, 30.897522%)" offset="0.78125"/><stop stop-opacity="1" stop-color="rgb(36.956787%, 68.997192%, 30.960083%)" offset="0.789062"/><stop stop-opacity="1" stop-color="rgb(36.715698%, 68.870544%, 31.022644%)" offset="0.796875"/><stop stop-opacity="1" stop-color="rgb(36.474609%, 68.745422%, 31.083679%)" offset="0.804688"/><stop stop-opacity="1" stop-color="rgb(36.233521%, 68.6203%, 31.14624%)" offset="0.8125"/><stop stop-opacity="1" stop-color="rgb(35.992432%, 68.495178%, 31.208801%)" offset="0.820312"/><stop stop-opacity="1" stop-color="rgb(35.751343%, 68.370056%, 31.271362%)" offset="0.828125"/><stop stop-opacity="1" stop-color="rgb(35.510254%, 68.243408%, 31.333923%)" offset="0.835938"/><stop stop-opacity="1" stop-color="rgb(35.269165%, 68.118286%, 31.396484%)" offset="0.84375"/><stop stop-opacity="1" stop-color="rgb(35.028076%, 67.993164%, 31.45752%)" offset="0.851563"/><stop stop-opacity="1" stop-color="rgb(34.785461%, 67.868042%, 31.520081%)" offset="0.859375"/><stop stop-opacity="1" stop-color="rgb(34.544373%, 67.74292%, 31.582642%)" offset="0.867188"/><stop stop-opacity="1" stop-color="rgb(34.303284%, 67.616272%, 31.645203%)" offset="0.875"/><stop stop-opacity="1" stop-color="rgb(34.062195%, 67.49115%, 31.707764%)" offset="0.882812"/><stop stop-opacity="1" stop-color="rgb(33.821106%, 67.366028%, 31.770325%)" offset="0.890625"/><stop stop-opacity="1" stop-color="rgb(33.580017%, 67.240906%, 31.83136%)" offset="0.898437"/><stop stop-opacity="1" stop-color="rgb(33.338928%, 67.115784%, 31.893921%)" offset="0.90625"/><stop stop-opacity="1" stop-color="rgb(33.097839%, 66.989136%, 31.956482%)" offset="0.914062"/><stop stop-opacity="1" stop-color="rgb(32.85675%, 66.864014%, 32.019043%)" offset="0.921875"/><stop stop-opacity="1" stop-color="rgb(32.614136%, 66.738892%, 32.081604%)" offset="0.929688"/><stop stop-opacity="1" stop-color="rgb(32.373047%, 66.61377%, 32.144165%)" offset="0.9375"/><stop stop-opacity="1" stop-color="rgb(32.131958%, 66.488647%, 32.2052%)" offset="0.945312"/><stop stop-opacity="1" stop-color="rgb(31.890869%, 66.363525%, 32.267761%)" offset="0.953125"/><stop stop-opacity="1" stop-color="rgb(31.64978%, 66.236877%, 32.330322%)" offset="0.960938"/><stop stop-opacity="1" stop-color="rgb(31.408691%, 66.111755%, 32.392883%)" offset="0.96875"/><stop stop-opacity="1" stop-color="rgb(31.143188%, 65.974426%, 32.461548%)" offset="1"/></linearGradient><clipPath id="7b641b107f"><path d="M 263 38 L 289 38 L 289 52.152344 L 263 52.152344 Z M 263 38 " clip-rule="nonzero"/></clipPath><clipPath id="ee8ece31fd"><path d="M 255 29 L 297 29 L 297 52.152344 L 255 52.152344 Z M 255 29 " clip-rule="nonzero"/></clipPath><mask id="90ccd2263f"><g filter="url(#12b300fab1)"><rect x="-30" width="360" fill="#000000" y="-7.5" height="89.999996" fill-opacity="0.5"/></g></mask><clipPath id="8f07cf6043"><path d="M 0.839844 0.761719 L 41.640625 0.761719 L 41.640625 23.152344 L 0.839844 23.152344 Z M 0.839844 0.761719 " clip-rule="nonzero"/></clipPath><clipPath id="5d71f8c1b8"><rect x="0" width="42" y="0" height="24"/></clipPath><clipPath id="8bb16de8db"><path d="M 256 42 L 297 42 L 297 52.152344 L 256 52.152344 Z M 256 42 " clip-rule="nonzero"/></clipPath><clipPath id="9a4094882c"><path d="M 255 22 L 298 22 L 298 52.152344 L 255 52.152344 Z M 255 22 " clip-rule="nonzero"/></clipPath></defs><g clip-path="url(#0a870255d7)"><path fill="#ffffff" d="M 13.09375 46.007812 L 6.074219 46.007812 L 6.074219 45.570312 L 8.042969 45.570312 L 8.042969 28.734375 C 6.390625 28.734375 5.167969 29.007812 4.375 29.550781 C 3.726562 29.96875 3.285156 30.914062 3.050781 32.386719 C 2.960938 32.96875 2.890625 33.765625 2.835938 34.78125 L 2.402344 34.78125 L 2.671875 28.300781 L 16.226562 28.300781 L 16.496094 34.78125 L 16.0625 34.78125 C 15.972656 32.984375 15.789062 31.722656 15.507812 30.996094 C 15.230469 30.269531 14.898438 29.789062 14.523438 29.550781 C 13.730469 29.007812 12.507812 28.734375 10.851562 28.734375 L 10.851562 45.570312 L 13.09375 45.570312 Z M 28.421875 44.648438 C 27.382812 45.917969 25.925781 46.554688 24.050781 46.554688 C 22.179688 46.554688 20.722656 45.917969 19.675781 44.648438 C 18.636719 43.375 18.113281 41.742188 18.113281 39.742188 C 18.113281 37.746094 18.636719 36.109375 19.675781 34.839844 C 20.722656 33.566406 22.179688 32.933594 24.050781 32.933594 C 25.925781 32.933594 27.382812 33.566406 28.421875 34.839844 C 29.46875 36.109375 29.992188 37.746094 29.992188 39.742188 C 29.992188 41.742188 29.46875 43.375 28.421875 44.648438 Z M 27.316406 41.566406 C 27.351562 41.039062 27.371094 40.429688 27.371094 39.742188 C 27.371094 39.050781 27.351562 38.441406 27.316406 37.914062 C 27.28125 37.386719 27.199219 36.824219 27.0625 36.226562 C 26.929688 35.628906 26.746094 35.132812 26.523438 34.742188 C 26.296875 34.351562 25.972656 34.03125 25.546875 33.777344 C 25.125 33.519531 24.628906 33.394531 24.050781 33.394531 C 23.476562 33.394531 22.976562 33.519531 22.554688 33.777344 C 22.128906 34.03125 21.808594 34.351562 21.582031 34.742188 C 21.355469 35.132812 21.175781 35.628906 21.042969 36.226562 C 20.90625 36.824219 20.820312 37.386719 20.789062 37.914062 C 20.75 38.441406 20.730469 39.050781 20.730469 39.742188 C 20.730469 40.429688 20.75 41.039062 20.789062 41.566406 C 20.820312 42.09375 20.90625 42.65625 21.042969 43.253906 C 21.175781 43.855469 21.355469 44.351562 21.582031 44.742188 C 21.808594 45.132812 22.128906 45.453125 22.554688 45.707031 C 22.976562 45.960938 23.476562 46.089844 24.050781 46.089844 C 24.628906 46.089844 25.125 45.960938 25.546875 45.707031 C 25.972656 45.453125 26.296875 45.132812 26.523438 44.742188 C 26.746094 44.351562 26.929688 43.855469 27.0625 43.253906 C 27.199219 42.65625 27.28125 42.09375 27.316406 41.566406 Z M 37.925781 32.933594 C 40.066406 32.933594 41.484375 33.417969 42.179688 34.386719 C 42.871094 35.359375 43.21875 37.054688 43.21875 39.46875 L 43.21875 44.292969 C 43.21875 45.035156 43.378906 45.40625 43.699219 45.40625 C 44.367188 45.40625 44.808594 44.363281 45.023438 42.273438 L 45.511719 42.332031 C 45.242188 45.144531 44.332031 46.554688 42.785156 46.554688 C 42.335938 46.554688 41.988281 46.390625 41.742188 46.0625 C 41.5 45.734375 41.347656 45.375 41.285156 44.988281 C 41.222656 44.597656 41.191406 44.109375 41.191406 43.527344 L 41.03125 43.527344 C 40.796875 44.492188 40.320312 45.234375 39.597656 45.761719 C 38.878906 46.289062 37.957031 46.554688 36.832031 46.554688 C 35.707031 46.554688 34.722656 46.25 33.878906 45.636719 C 33.03125 45.03125 32.609375 44.15625 32.609375 43.011719 C 32.609375 42.15625 32.851562 41.449219 33.339844 40.886719 C 34.347656 39.722656 36.628906 39.140625 40.191406 39.140625 C 40.390625 39.140625 40.597656 39.140625 40.8125 39.140625 L 40.8125 37.804688 C 40.8125 36.371094 40.570312 35.292969 40.085938 34.566406 C 39.597656 33.839844 38.757812 33.476562 37.558594 33.476562 C 36.367188 33.476562 35.488281 33.722656 34.929688 34.210938 C 34.371094 34.699219 34.09375 35.207031 34.09375 35.734375 C 34.09375 35.898438 34.167969 35.980469 34.320312 35.980469 C 34.476562 35.980469 34.5625 35.898438 34.578125 35.734375 C 34.6875 35.265625 35.046875 35.027344 35.660156 35.027344 C 36.054688 35.027344 36.367188 35.167969 36.605469 35.453125 C 36.835938 35.730469 36.953125 36.078125 36.953125 36.484375 C 36.953125 36.894531 36.804688 37.238281 36.511719 37.523438 C 36.214844 37.800781 35.824219 37.941406 35.347656 37.941406 C 34.871094 37.941406 34.457031 37.757812 34.105469 37.386719 C 33.753906 37.011719 33.578125 36.554688 33.578125 36.007812 C 33.578125 34.992188 34.003906 34.226562 34.847656 33.707031 C 35.695312 33.191406 36.71875 32.933594 37.925781 32.933594 Z M 40.8125 41.457031 L 40.8125 39.632812 C 40.632812 39.632812 40.351562 39.632812 39.964844 39.632812 C 39.574219 39.632812 39.117188 39.660156 38.585938 39.710938 C 38.058594 39.769531 37.511719 39.90625 36.953125 40.121094 C 35.804688 40.539062 35.226562 41.46875 35.226562 42.902344 C 35.226562 43.773438 35.433594 44.472656 35.847656 45 C 36.261719 45.527344 36.925781 45.789062 37.84375 45.789062 C 38.761719 45.789062 39.488281 45.371094 40.019531 44.539062 C 40.550781 43.703125 40.8125 42.675781 40.8125 41.457031 Z M 59.953125 45.601562 L 59.953125 46.007812 L 55.769531 46.007812 L 55.769531 43.527344 L 55.609375 43.527344 C 55.28125 44.457031 54.800781 45.191406 54.160156 45.738281 C 53.523438 46.28125 52.761719 46.554688 51.882812 46.554688 C 50.261719 46.554688 49.0625 45.914062 48.277344 44.632812 C 47.496094 43.351562 47.105469 41.730469 47.105469 39.769531 C 47.105469 37.808594 47.511719 36.175781 48.320312 34.875 C 49.128906 33.582031 50.371094 32.933594 52.042969 32.933594 C 53.71875 32.933594 54.90625 33.675781 55.609375 35.164062 L 55.769531 35.164062 L 55.769531 27.617188 L 53.851562 27.617188 L 53.851562 27.210938 L 54.417969 27.210938 C 55.820312 27.210938 57.070312 27.09375 58.171875 26.855469 L 58.171875 45.601562 Z M 55.820312 39.769531 L 55.820312 38.789062 C 55.820312 37.371094 55.550781 36.167969 55.011719 35.179688 C 54.472656 34.1875 53.625 33.691406 52.472656 33.691406 C 51.234375 33.691406 50.453125 34.402344 50.125 35.820312 C 49.855469 36.960938 49.722656 38.105469 49.722656 39.25 C 49.722656 40.394531 49.753906 41.269531 49.816406 41.867188 C 49.878906 42.464844 49.996094 43.085938 50.167969 43.730469 C 50.335938 44.375 50.625 44.882812 51.03125 45.246094 C 51.433594 45.609375 51.921875 45.789062 52.488281 45.789062 C 53.054688 45.789062 53.558594 45.585938 54 45.175781 C 54.441406 44.769531 54.789062 44.246094 55.039062 43.609375 C 55.558594 42.320312 55.820312 41.039062 55.820312 39.769531 Z M 67.347656 32.933594 C 69.488281 32.933594 70.90625 33.417969 71.601562 34.386719 C 72.292969 35.359375 72.640625 37.054688 72.640625 39.46875 L 72.640625 44.292969 C 72.640625 45.035156 72.800781 45.40625 73.121094 45.40625 C 73.789062 45.40625 74.230469 44.363281 74.445312 42.273438 L 74.933594 42.332031 C 74.664062 45.144531 73.753906 46.554688 72.207031 46.554688 C 71.757812 46.554688 71.410156 46.390625 71.164062 46.0625 C 70.921875 45.734375 70.769531 45.375 70.707031 44.988281 C 70.644531 44.597656 70.613281 44.109375 70.613281 43.527344 L 70.453125 43.527344 C 70.21875 44.492188 69.742188 45.234375 69.019531 45.761719 C 68.300781 46.289062 67.378906 46.554688 66.253906 46.554688 C 65.128906 46.554688 64.144531 46.25 63.300781 45.636719 C 62.453125 45.03125 62.03125 44.15625 62.03125 43.011719 C 62.03125 42.15625 62.273438 41.449219 62.761719 40.886719 C 63.769531 39.722656 66.050781 39.140625 69.613281 39.140625 C 69.8125 39.140625 70.019531 39.140625 70.234375 39.140625 L 70.234375 37.804688 C 70.234375 36.371094 69.992188 35.292969 69.507812 34.566406 C 69.019531 33.839844 68.179688 33.476562 66.980469 33.476562 C 65.789062 33.476562 64.910156 33.722656 64.351562 34.210938 C 63.792969 34.699219 63.515625 35.207031 63.515625 35.734375 C 63.515625 35.898438 63.589844 35.980469 63.742188 35.980469 C 63.898438 35.980469 63.984375 35.898438 64 35.734375 C 64.109375 35.265625 64.46875 35.027344 65.082031 35.027344 C 65.476562 35.027344 65.792969 35.167969 66.027344 35.453125 C 66.257812 35.730469 66.375 36.078125 66.375 36.484375 C 66.375 36.894531 66.226562 37.238281 65.933594 37.523438 C 65.636719 37.800781 65.246094 37.941406 64.769531 37.941406 C 64.292969 37.941406 63.878906 37.757812 63.527344 37.386719 C 63.175781 37.011719 63 36.554688 63 36.007812 C 63 34.992188 63.425781 34.226562 64.269531 33.707031 C 65.117188 33.191406 66.140625 32.933594 67.347656 32.933594 Z M 70.234375 41.457031 L 70.234375 39.632812 C 70.054688 39.632812 69.773438 39.632812 69.386719 39.632812 C 68.996094 39.632812 68.539062 39.660156 68.007812 39.710938 C 67.480469 39.769531 66.933594 39.90625 66.375 40.121094 C 65.226562 40.539062 64.648438 41.46875 64.648438 42.902344 C 64.648438 43.773438 64.855469 44.472656 65.269531 45 C 65.683594 45.527344 66.351562 45.789062 67.265625 45.789062 C 68.183594 45.789062 68.910156 45.371094 69.441406 44.539062 C 69.972656 43.703125 70.234375 42.675781 70.234375 41.457031 Z M 80.277344 26.855469 L 80.277344 45.601562 L 82.058594 45.601562 L 82.058594 46.007812 L 76.09375 46.007812 L 76.09375 45.601562 L 77.875 45.601562 L 77.875 27.617188 L 75.957031 27.617188 L 75.957031 27.210938 L 76.527344 27.210938 C 77.929688 27.210938 79.179688 27.09375 80.277344 26.855469 Z M 88.132812 26.855469 L 88.132812 45.601562 L 89.914062 45.601562 L 89.914062 46.007812 L 83.949219 46.007812 L 83.949219 45.601562 L 85.730469 45.601562 L 85.730469 27.617188 L 83.816406 27.617188 L 83.816406 27.210938 L 84.382812 27.210938 C 85.78125 27.210938 87.035156 27.09375 88.132812 26.855469 Z M 97.957031 52.355469 C 97.054688 52.355469 96.335938 52.03125 95.796875 51.390625 C 95.257812 50.742188 94.988281 49.914062 94.988281 48.894531 C 94.988281 47.351562 95.777344 46 97.363281 44.835938 L 97.335938 44.726562 C 96.113281 44.652344 95.042969 43.808594 94.125 42.195312 C 93.207031 40.578125 92.75 38.316406 92.75 35.410156 L 92.75 33.886719 L 90.832031 33.886719 L 90.832031 33.476562 L 91.398438 33.476562 C 92.820312 33.476562 94.089844 33.359375 95.203125 33.121094 L 95.203125 34.78125 C 95.203125 37.34375 95.503906 39.410156 96.109375 40.980469 C 96.710938 42.550781 97.578125 43.335938 98.714844 43.335938 C 99.523438 43.335938 100.367188 42.71875 101.25 41.484375 C 102.132812 40.25 102.574219 38.851562 102.574219 37.289062 C 102.574219 36.398438 102.449219 35.613281 102.195312 34.933594 C 101.945312 34.253906 101.546875 33.800781 101.007812 33.582031 C 100.828125 33.492188 100.621094 33.445312 100.386719 33.445312 C 100.152344 33.445312 100.035156 33.523438 100.035156 33.679688 C 100.035156 33.835938 100.117188 33.921875 100.28125 33.9375 C 100.765625 34.027344 101 34.339844 100.980469 34.867188 C 100.980469 35.882812 100.511719 36.390625 99.574219 36.390625 C 99.144531 36.390625 98.789062 36.238281 98.511719 35.929688 C 98.230469 35.617188 98.089844 35.214844 98.089844 34.714844 C 98.089844 34.214844 98.289062 33.792969 98.6875 33.445312 C 99.082031 33.101562 99.558594 32.933594 100.117188 32.933594 C 101.125 32.933594 101.867188 33.332031 102.34375 34.128906 C 102.820312 34.925781 103.058594 35.945312 103.058594 37.179688 C 103.058594 40.105469 101.871094 42.367188 99.496094 43.964844 C 99.460938 44 99.269531 44.128906 98.929688 44.34375 C 98.589844 44.5625 98.375 44.703125 98.292969 44.769531 C 98.214844 44.832031 98.019531 44.972656 97.714844 45.191406 C 97.410156 45.410156 97.207031 45.570312 97.109375 45.679688 C 97.007812 45.789062 96.839844 45.957031 96.605469 46.183594 C 96.375 46.410156 96.210938 46.605469 96.121094 46.769531 C 96.03125 46.933594 95.925781 47.132812 95.796875 47.371094 C 95.582031 47.769531 95.472656 48.335938 95.472656 49.074219 C 95.472656 49.808594 95.699219 50.453125 96.148438 51.007812 C 96.597656 51.558594 97.101562 51.835938 97.660156 51.835938 C 97.839844 51.835938 97.929688 51.765625 97.929688 51.621094 C 97.929688 51.472656 97.847656 51.382812 97.6875 51.347656 C 97.21875 51.238281 96.984375 50.875 96.984375 50.257812 C 96.984375 49.878906 97.125 49.5625 97.40625 49.316406 C 97.683594 49.070312 98.023438 48.949219 98.429688 48.949219 C 98.832031 48.949219 99.175781 49.097656 99.457031 49.398438 C 99.734375 49.699219 99.875 50.085938 99.875 50.558594 C 99.875 51.027344 99.683594 51.445312 99.304688 51.808594 C 98.929688 52.171875 98.476562 52.355469 97.957031 52.355469 Z M 123.65625 46.28125 C 123.007812 46.28125 122.484375 46.007812 122.089844 45.464844 C 121.691406 44.917969 121.496094 44.109375 121.496094 43.039062 L 121.496094 41.242188 C 121.496094 39.699219 121.195312 38.609375 120.59375 37.972656 C 119.988281 37.335938 119.039062 37.019531 117.742188 37.019531 L 115.800781 37.019531 L 115.800781 45.570312 L 118.039062 45.570312 L 118.039062 46.007812 L 111.019531 46.007812 L 111.019531 45.570312 L 112.992188 45.570312 L 112.992188 28.734375 L 111.019531 28.734375 L 111.019531 28.300781 L 117.527344 28.300781 C 120.246094 28.300781 122.082031 28.609375 123.03125 29.222656 C 123.449219 29.476562 123.800781 29.855469 124.085938 30.355469 C 124.375 30.855469 124.515625 31.457031 124.515625 32.167969 C 124.515625 33.402344 124.15625 34.425781 123.4375 35.230469 C 122.71875 36.039062 121.664062 36.535156 120.28125 36.714844 L 120.28125 36.851562 C 121.9375 36.851562 123.027344 37.25 123.5625 38.050781 C 124.089844 38.851562 124.355469 40.214844 124.355469 42.136719 L 124.355469 43.390625 C 124.355469 44.046875 124.402344 44.496094 124.492188 44.742188 C 124.582031 44.984375 124.738281 45.109375 124.964844 45.109375 C 125.1875 45.109375 125.421875 44.925781 125.664062 44.5625 C 125.90625 44.199219 126.109375 43.65625 126.273438 42.929688 L 126.757812 43.039062 C 126.328125 45.199219 125.292969 46.28125 123.65625 46.28125 Z M 117.527344 36.578125 C 119.039062 36.578125 120.078125 36.285156 120.644531 35.695312 C 121.210938 35.105469 121.496094 34.023438 121.496094 32.453125 C 121.496094 30.882812 121.167969 29.871094 120.511719 29.417969 C 119.851562 28.960938 118.734375 28.734375 117.152344 28.734375 L 115.800781 28.734375 L 115.800781 36.578125 Z M 135.070312 32.933594 C 136.421875 32.933594 137.550781 33.222656 138.460938 33.800781 C 139.371094 34.382812 139.824219 35.253906 139.824219 36.417969 C 139.824219 38.214844 138.808594 39.324219 136.773438 39.742188 C 135.75 39.941406 134.472656 40.042969 132.941406 40.042969 L 131.671875 40.042969 L 131.671875 40.832031 C 131.671875 42.304688 131.972656 43.496094 132.574219 44.414062 C 133.179688 45.332031 134.0625 45.789062 135.222656 45.789062 C 136.378906 45.789062 137.289062 45.445312 137.945312 44.753906 C 138.605469 44.0625 139.066406 43.175781 139.335938 42.085938 L 139.824219 42.136719 C 139.535156 43.464844 138.953125 44.53125 138.082031 45.339844 C 137.210938 46.148438 136.105469 46.554688 134.773438 46.554688 C 132.902344 46.554688 131.480469 45.929688 130.511719 44.683594 C 129.539062 43.441406 129.054688 41.792969 129.054688 39.742188 C 129.054688 37.6875 129.574219 36.039062 130.617188 34.796875 C 131.660156 33.554688 133.144531 32.933594 135.070312 32.933594 Z M 131.671875 38.789062 L 131.671875 39.550781 L 132.617188 39.550781 C 134.074219 39.550781 135.09375 39.40625 135.679688 39.113281 C 136.261719 38.824219 136.664062 38.464844 136.882812 38.039062 C 137.097656 37.609375 137.203125 37.007812 137.203125 36.226562 C 137.203125 35.445312 137.011719 34.777344 136.621094 34.226562 C 136.238281 33.671875 135.648438 33.394531 134.855469 33.394531 C 134.066406 33.394531 133.421875 33.679688 132.925781 34.253906 C 132.429688 34.824219 132.097656 35.492188 131.929688 36.253906 C 131.757812 37.015625 131.671875 37.859375 131.671875 38.789062 Z M 147.351562 32.933594 C 149.496094 32.933594 150.910156 33.417969 151.605469 34.386719 C 152.296875 35.359375 152.644531 37.054688 152.644531 39.46875 L 152.644531 44.292969 C 152.644531 45.035156 152.808594 45.40625 153.128906 45.40625 C 153.796875 45.40625 154.238281 44.363281 154.453125 42.273438 L 154.941406 42.332031 C 154.671875 45.144531 153.761719 46.554688 152.210938 46.554688 C 151.761719 46.554688 151.414062 46.390625 151.171875 46.0625 C 150.929688 45.734375 150.777344 45.375 150.714844 44.988281 C 150.652344 44.597656 150.621094 44.109375 150.621094 43.527344 L 150.457031 43.527344 C 150.222656 44.492188 149.75 45.234375 149.027344 45.761719 C 148.308594 46.289062 147.386719 46.554688 146.261719 46.554688 C 145.136719 46.554688 144.152344 46.25 143.304688 45.636719 C 142.457031 45.03125 142.035156 44.15625 142.035156 43.011719 C 142.035156 42.15625 142.277344 41.449219 142.765625 40.886719 C 143.773438 39.722656 146.058594 39.140625 149.621094 39.140625 C 149.816406 39.140625 150.027344 39.140625 150.242188 39.140625 L 150.242188 37.804688 C 150.242188 36.371094 150 35.292969 149.511719 34.566406 C 149.027344 33.839844 148.1875 33.476562 146.988281 33.476562 C 145.792969 33.476562 144.914062 33.722656 144.355469 34.210938 C 143.800781 34.699219 143.519531 35.207031 143.519531 35.734375 C 143.519531 35.898438 143.597656 35.980469 143.75 35.980469 C 143.902344 35.980469 143.988281 35.898438 144.007812 35.734375 C 144.117188 35.265625 144.476562 35.027344 145.089844 35.027344 C 145.484375 35.027344 145.796875 35.167969 146.03125 35.453125 C 146.265625 35.730469 146.382812 36.078125 146.382812 36.484375 C 146.382812 36.894531 146.234375 37.238281 145.933594 37.523438 C 145.640625 37.800781 145.253906 37.941406 144.777344 37.941406 C 144.300781 37.941406 143.886719 37.757812 143.535156 37.386719 C 143.183594 37.011719 143.007812 36.554688 143.007812 36.007812 C 143.007812 34.992188 143.429688 34.226562 144.277344 33.707031 C 145.125 33.191406 146.148438 32.933594 147.351562 32.933594 Z M 150.242188 41.457031 L 150.242188 39.632812 C 150.0625 39.632812 149.78125 39.632812 149.390625 39.632812 C 149.003906 39.632812 148.546875 39.660156 148.015625 39.710938 C 147.484375 39.769531 146.9375 39.90625 146.382812 40.121094 C 145.230469 40.539062 144.652344 41.46875 144.652344 42.902344 C 144.652344 43.773438 144.859375 44.472656 145.277344 45 C 145.691406 45.527344 146.355469 45.789062 147.273438 45.789062 C 148.191406 45.789062 148.914062 45.371094 149.445312 44.539062 C 149.976562 43.703125 150.242188 42.675781 150.242188 41.457031 Z M 160.28125 26.855469 L 160.28125 45.601562 L 162.0625 45.601562 L 162.0625 46.007812 L 156.097656 46.007812 L 156.097656 45.601562 L 157.878906 45.601562 L 157.878906 27.617188 L 155.964844 27.617188 L 155.964844 27.210938 L 156.53125 27.210938 C 157.933594 27.210938 159.183594 27.09375 160.28125 26.855469 Z M 181.066406 45.296875 L 181.066406 38.269531 L 179.097656 38.269531 L 179.097656 37.835938 L 185.847656 37.835938 L 185.847656 38.269531 L 183.875 38.269531 L 183.875 45.789062 C 183.53125 45.664062 183.117188 45.601562 182.632812 45.601562 C 182.148438 45.601562 181.375 45.757812 180.324219 46.078125 C 179.273438 46.394531 178.351562 46.554688 177.558594 46.554688 C 175.257812 46.554688 173.464844 45.632812 172.1875 43.789062 C 170.910156 41.945312 170.269531 39.726562 170.269531 37.140625 C 170.269531 34.550781 170.941406 32.339844 172.28125 30.507812 C 173.621094 28.671875 175.425781 27.753906 177.691406 27.753906 C 178.503906 27.753906 179.410156 27.910156 180.417969 28.21875 C 181.429688 28.523438 182.011719 28.679688 182.171875 28.679688 C 182.695312 28.679688 183 28.371094 183.089844 27.753906 L 183.417969 27.753906 L 183.417969 33.71875 L 182.984375 33.71875 C 182.710938 32.066406 182.164062 30.746094 181.335938 29.757812 C 180.507812 28.765625 179.375 28.269531 177.9375 28.269531 C 176.226562 28.269531 175.058594 29.007812 174.425781 30.480469 C 173.90625 31.730469 173.617188 33.382812 173.566406 35.4375 C 173.566406 35.910156 173.566406 36.625 173.566406 37.589844 C 173.566406 38.550781 173.617188 39.476562 173.726562 40.367188 C 173.835938 41.257812 174.03125 42.15625 174.320312 43.066406 C 174.605469 43.972656 175.066406 44.675781 175.695312 45.175781 C 176.324219 45.675781 177.132812 45.925781 178.125 45.925781 C 179.113281 45.925781 180.09375 45.714844 181.066406 45.296875 Z M 197.34375 35 C 197.34375 34.53125 197.175781 34.140625 196.832031 33.828125 C 196.488281 33.519531 196.03125 33.367188 195.457031 33.367188 C 194.878906 33.367188 194.34375 33.597656 193.847656 34.058594 C 193.351562 34.523438 192.96875 35.128906 192.699219 35.871094 C 192.214844 37.308594 191.972656 38.859375 191.972656 40.53125 L 191.972656 45.601562 L 193.945312 45.601562 L 193.945312 46.007812 L 187.789062 46.007812 L 187.789062 45.601562 L 189.570312 45.601562 L 189.570312 33.886719 L 187.652344 33.886719 L 187.652344 33.476562 L 188.21875 33.476562 C 189.660156 33.476562 190.929688 33.359375 192.023438 33.121094 L 192.023438 35.957031 L 192.191406 35.957031 C 192.945312 33.941406 194.078125 32.933594 195.589844 32.933594 C 196.253906 32.933594 196.800781 33.144531 197.222656 33.570312 C 197.644531 33.996094 197.859375 34.523438 197.859375 35.148438 C 197.859375 35.777344 197.683594 36.277344 197.332031 36.648438 C 196.980469 37.019531 196.566406 37.207031 196.089844 37.207031 C 195.613281 37.207031 195.222656 37.066406 194.925781 36.785156 C 194.632812 36.503906 194.484375 36.160156 194.484375 35.75 C 194.484375 35.34375 194.601562 34.996094 194.832031 34.714844 C 195.066406 34.433594 195.382812 34.292969 195.777344 34.292969 C 196.390625 34.292969 196.75 34.53125 196.859375 35 C 196.894531 35.164062 196.984375 35.246094 197.128906 35.246094 C 197.273438 35.246094 197.34375 35.164062 197.34375 35 Z M 204.171875 32.933594 C 206.3125 32.933594 207.730469 33.417969 208.421875 34.386719 C 209.117188 35.359375 209.464844 37.054688 209.464844 39.46875 L 209.464844 44.292969 C 209.464844 45.035156 209.625 45.40625 209.949219 45.40625 C 210.617188 45.40625 211.058594 44.363281 211.273438 42.273438 L 211.761719 42.332031 C 211.488281 45.144531 210.582031 46.554688 209.03125 46.554688 C 208.582031 46.554688 208.234375 46.390625 207.992188 46.0625 C 207.75 45.734375 207.597656 45.375 207.535156 44.988281 C 207.472656 44.597656 207.441406 44.109375 207.441406 43.527344 L 207.277344 43.527344 C 207.042969 44.492188 206.566406 45.234375 205.847656 45.761719 C 205.128906 46.289062 204.207031 46.554688 203.082031 46.554688 C 201.957031 46.554688 200.96875 46.25 200.125 45.636719 C 199.277344 45.03125 198.855469 44.15625 198.855469 43.011719 C 198.855469 42.15625 199.097656 41.449219 199.582031 40.886719 C 200.59375 39.722656 202.878906 39.140625 206.441406 39.140625 C 206.636719 39.140625 206.84375 39.140625 207.0625 39.140625 L 207.0625 37.804688 C 207.0625 36.371094 206.820312 35.292969 206.332031 34.566406 C 205.847656 33.839844 205.003906 33.476562 203.808594 33.476562 C 202.609375 33.476562 201.734375 33.722656 201.175781 34.210938 C 200.621094 34.699219 200.339844 35.207031 200.339844 35.734375 C 200.339844 35.898438 200.417969 35.980469 200.570312 35.980469 C 200.722656 35.980469 200.808594 35.898438 200.828125 35.734375 C 200.933594 35.265625 201.296875 35.027344 201.90625 35.027344 C 202.300781 35.027344 202.617188 35.167969 202.851562 35.453125 C 203.085938 35.730469 203.199219 36.078125 203.199219 36.484375 C 203.199219 36.894531 203.050781 37.238281 202.753906 37.523438 C 202.460938 37.800781 202.074219 37.941406 201.597656 37.941406 C 201.117188 37.941406 200.707031 37.757812 200.355469 37.386719 C 200.003906 37.011719 199.828125 36.554688 199.828125 36.007812 C 199.828125 34.992188 200.25 34.226562 201.097656 33.707031 C 201.941406 33.191406 202.96875 32.933594 204.171875 32.933594 Z M 207.0625 41.457031 L 207.0625 39.632812 C 206.882812 39.632812 206.597656 39.632812 206.210938 39.632812 C 205.824219 39.632812 205.367188 39.660156 204.835938 39.710938 C 204.304688 39.769531 203.757812 39.90625 203.199219 40.121094 C 202.046875 40.539062 201.472656 41.46875 201.472656 42.902344 C 201.472656 43.773438 201.679688 44.472656 202.09375 45 C 202.511719 45.527344 203.175781 45.789062 204.09375 45.789062 C 205.011719 45.789062 205.734375 45.371094 206.265625 44.539062 C 206.796875 43.703125 207.0625 42.675781 207.0625 41.457031 Z M 216.96875 44.316406 L 216.96875 51.457031 L 218.746094 51.457031 L 218.746094 51.867188 L 212.785156 51.867188 L 212.785156 51.457031 L 214.5625 51.457031 L 214.5625 33.886719 L 212.648438 33.886719 L 212.648438 33.476562 L 213.214844 33.476562 C 214.617188 33.476562 215.871094 33.359375 216.96875 33.121094 L 216.96875 35.957031 L 217.128906 35.957031 C 217.453125 35.03125 217.9375 34.292969 218.574219 33.75 C 219.210938 33.203125 219.972656 32.933594 220.855469 32.933594 C 222.472656 32.933594 223.675781 33.570312 224.457031 34.851562 C 225.238281 36.132812 225.632812 37.753906 225.632812 39.710938 C 225.632812 41.675781 225.226562 43.304688 224.417969 44.605469 C 223.605469 45.90625 222.367188 46.554688 220.695312 46.554688 C 219.019531 46.554688 217.832031 45.808594 217.128906 44.316406 Z M 216.914062 39.710938 L 216.914062 40.695312 C 216.914062 42.113281 217.183594 43.316406 217.722656 44.304688 C 218.265625 45.296875 219.109375 45.789062 220.261719 45.789062 C 221.503906 45.789062 222.285156 45.082031 222.609375 43.664062 C 222.878906 42.519531 223.015625 41.375 223.015625 40.230469 C 223.015625 39.089844 222.984375 38.214844 222.921875 37.617188 C 222.859375 37.015625 222.742188 36.394531 222.566406 35.75 C 222.398438 35.105469 222.109375 34.601562 221.707031 34.238281 C 221.300781 33.875 220.816406 33.691406 220.246094 33.691406 C 219.679688 33.691406 219.175781 33.898438 218.738281 34.304688 C 218.292969 34.714844 217.949219 35.234375 217.699219 35.871094 C 217.175781 37.160156 216.914062 38.441406 216.914062 39.710938 Z M 232.410156 45.601562 L 234.191406 45.601562 L 234.191406 46.007812 L 228.226562 46.007812 L 228.226562 45.601562 L 230.007812 45.601562 L 230.007812 27.617188 L 228.089844 27.617188 L 228.089844 27.210938 L 228.65625 27.210938 C 230.078125 27.210938 231.347656 27.09375 232.460938 26.855469 L 232.460938 35.84375 L 232.621094 35.84375 C 232.929688 34.972656 233.449219 34.269531 234.175781 33.734375 C 234.90625 33.199219 235.71875 32.933594 236.621094 32.933594 C 238.183594 32.933594 239.253906 33.398438 239.832031 34.332031 C 240.40625 35.269531 240.695312 36.664062 240.695312 38.515625 L 240.695312 45.601562 L 242.476562 45.601562 L 242.476562 46.007812 L 236.511719 46.007812 L 236.511719 45.601562 L 238.292969 45.601562 L 238.292969 38.894531 C 238.292969 36.84375 238.140625 35.492188 237.835938 34.839844 C 237.6875 34.546875 237.46875 34.28125 237.171875 34.046875 C 236.875 33.8125 236.4375 33.691406 235.863281 33.691406 C 235.289062 33.691406 234.742188 33.902344 234.230469 34.320312 C 233.714844 34.738281 233.335938 35.308594 233.085938 36.035156 C 232.632812 37.328125 232.410156 38.871094 232.410156 40.667969 Z M 249.761719 32.933594 C 252.5 32.933594 253.867188 33.867188 253.867188 35.734375 C 253.867188 36.28125 253.691406 36.738281 253.339844 37.113281 C 252.988281 37.484375 252.578125 37.667969 252.097656 37.667969 C 251.621094 37.667969 251.234375 37.527344 250.9375 37.25 C 250.640625 36.964844 250.496094 36.621094 250.496094 36.210938 C 250.496094 35.804688 250.609375 35.460938 250.84375 35.179688 C 251.078125 34.898438 251.394531 34.753906 251.789062 34.753906 C 252.398438 34.753906 252.761719 34.992188 252.867188 35.464844 C 252.886719 35.628906 252.972656 35.710938 253.125 35.710938 C 253.277344 35.710938 253.355469 35.628906 253.355469 35.464844 C 253.355469 34.957031 253.105469 34.5 252.613281 34.089844 C 252.117188 33.679688 251.363281 33.476562 250.34375 33.476562 C 249.328125 33.476562 248.488281 33.667969 247.832031 34.046875 C 247.175781 34.429688 246.851562 34.960938 246.851562 35.640625 C 246.851562 36.320312 247.109375 36.871094 247.628906 37.289062 C 248.152344 37.707031 248.78125 38.050781 249.519531 38.324219 C 250.257812 38.597656 251 38.882812 251.746094 39.183594 C 252.492188 39.484375 253.128906 39.914062 253.652344 40.476562 C 254.171875 41.039062 254.433594 41.71875 254.433594 42.519531 C 254.433594 43.882812 253.953125 44.894531 252.992188 45.558594 C 252.027344 46.222656 250.835938 46.554688 249.414062 46.554688 C 247.992188 46.554688 246.847656 46.300781 245.984375 45.789062 C 245.121094 45.28125 244.691406 44.507812 244.691406 43.472656 C 244.691406 42.929688 244.867188 42.46875 245.214844 42.097656 C 245.566406 41.726562 245.980469 41.539062 246.457031 41.539062 C 246.933594 41.539062 247.320312 41.679688 247.617188 41.960938 C 247.917969 42.242188 248.066406 42.589844 248.066406 42.996094 C 248.066406 43.40625 247.949219 43.75 247.710938 44.035156 C 247.476562 44.3125 247.164062 44.453125 246.769531 44.453125 C 246.15625 44.453125 245.796875 44.21875 245.6875 43.746094 C 245.671875 43.582031 245.585938 43.5 245.433594 43.5 C 245.277344 43.5 245.199219 43.582031 245.199219 43.746094 C 245.199219 44.292969 245.503906 44.804688 246.109375 45.285156 C 246.710938 45.769531 247.605469 46.007812 248.792969 46.007812 C 251.402344 46.007812 252.707031 45.15625 252.707031 43.449219 C 252.707031 42.394531 251.816406 41.539062 250.03125 40.886719 C 249.277344 40.613281 248.53125 40.328125 247.796875 40.027344 C 247.054688 39.726562 246.425781 39.296875 245.90625 38.734375 C 245.382812 38.171875 245.121094 37.488281 245.121094 36.6875 C 245.121094 35.527344 245.574219 34.609375 246.484375 33.9375 C 247.394531 33.265625 248.484375 32.933594 249.761719 32.933594 Z M 249.761719 32.933594 " fill-opacity="1" fill-rule="nonzero"/></g><g clip-path="url(#4531851f60)"><g clip-path="url(#3672e29e09)"><path fill="url(#13636a4aa5)" d="M 254.867188 52.09375 L 254.867188 22.132812 L 296.808594 22.132812 L 296.808594 52.09375 Z M 254.867188 52.09375 " fill-rule="nonzero"/></g></g><path fill="#ffffff" d="M 291.925781 24.886719 C 291.925781 24.886719 287.371094 23.679688 285.207031 29.421875 C 283.300781 28.613281 280.070312 27.398438 275.703125 27.199219 C 276.515625 26.785156 281.246094 26.933594 284.675781 28.105469 C 285.382812 26.777344 287.578125 22.953125 291.925781 24.886719 Z M 260.4375 31.035156 C 259.570312 24.136719 266.480469 22.980469 266.480469 22.980469 C 259.078125 22.378906 259.5625 30.460938 260.4375 31.035156 Z M 260.4375 31.035156 " fill-opacity="1" fill-rule="nonzero"/><g clip-path="url(#7b641b107f)"><path fill="#ffffff" d="M 288.777344 52.09375 L 263.367188 52.09375 C 263.339844 51.253906 263.367188 48.839844 264.214844 46.261719 C 266.886719 45.21875 274.136719 41.675781 275.035156 38.035156 C 275.425781 38.027344 276.675781 38.171875 277.089844 38.1875 C 288.710938 38.71875 289.136719 48.074219 288.777344 52.09375 Z M 276.773438 38.652344 C 276.476562 38.136719 275.882812 39.785156 276.773438 39.542969 C 277.664062 39.300781 277.074219 39.167969 276.773438 38.652344 Z M 276.773438 38.652344 " fill-opacity="1" fill-rule="nonzero"/></g><g clip-path="url(#ee8ece31fd)"><g mask="url(#90ccd2263f)"><g transform="matrix(1, 0, 0, 1, 255, 29)"><g clip-path="url(#5d71f8c1b8)"><g clip-path="url(#8f07cf6043)"><path fill="#4fa853" d="M 1.574219 18.898438 C 1.457031 18.765625 1.457031 18.234375 1.339844 18.09375 C 1.316406 18.035156 1.292969 17.953125 1.273438 17.859375 C 0.199219 14.046875 1.699219 11.234375 1.699219 11.234375 C 1.699219 11.234375 3.597656 21.929688 17.523438 22.039062 C 18.578125 22.011719 19.703125 21.953125 20.894531 21.855469 C 35.351562 20.613281 36.734375 7.347656 36.40625 6.015625 C 38.40625 4.832031 39.664062 2.59375 40.535156 0.90625 C 40.535156 0.90625 41.433594 2.46875 39.84375 4.324219 C 39.347656 4.910156 39.019531 5.550781 38.621094 5.847656 C 39.011719 6.242188 39.886719 7.046875 40.335938 8.5625 C 43.292969 18.542969 39.855469 23.09375 39.855469 23.09375 L 3.796875 23.09375 C 2.574219 21.636719 1.890625 20.148438 1.574219 18.898438 Z M 21.109375 8.4375 C 21.109375 8.4375 20.652344 7.4375 17.855469 9.660156 C 15.066406 11.882812 9.148438 14.839844 7.917969 15.453125 C 6.683594 16.070312 6.46875 18.042969 8.492188 17.445312 C 10.515625 16.84375 21.507812 11.785156 21.109375 8.4375 Z M 21.109375 8.4375 " fill-opacity="1" fill-rule="nonzero"/></g></g></g></g></g><g clip-path="url(#8bb16de8db)"><path fill="#9cd03f" d="M 256.382812 42.789062 C 256.382812 42.789062 257 49.347656 262.160156 52.09375 C 261.5 52.09375 259.777344 52.09375 259.777344 52.09375 C 259.777344 52.09375 255.476562 49.082031 256.382812 42.789062 Z M 296.152344 42.789062 C 296.152344 42.789062 296.160156 48.980469 291.925781 52.09375 C 294.136719 52.09375 294.84375 52.09375 294.84375 52.09375 C 294.84375 52.09375 297.652344 48.617188 296.152344 42.789062 Z M 296.152344 42.789062 " fill-opacity="1" fill-rule="nonzero"/></g><g clip-path="url(#9a4094882c)"><path fill="#0e4b11" d="M 273.335938 23.730469 C 273.738281 22.980469 273.96875 22.554688 274.746094 22.8125 C 275.601562 23.097656 275.019531 25.253906 272.707031 25.003906 C 272.179688 24.652344 272.929688 24.476562 273.335938 23.730469 Z M 283.441406 25.777344 C 284.035156 25.550781 283.34375 25.21875 283.109375 24.394531 C 282.882812 23.570312 282.75 23.105469 281.9375 23.1875 C 281.046875 23.28125 281.136719 25.5 283.441406 25.777344 Z M 280.6875 32.402344 C 278.640625 31.917969 279.421875 33.09375 277.007812 32.960938 C 275.601562 32.886719 275.601562 31.488281 273.585938 32.035156 C 272.546875 32.320312 271.789062 34.214844 271.921875 36.140625 C 268.175781 37.328125 262.898438 40.734375 262.507812 40.949219 C 260.320312 42.125 262.144531 41.839844 262.507812 41.558594 C 264.65625 41.023438 273.496094 34.859375 274.726562 36.789062 C 276.117188 38.960938 270.707031 42.625 266.996094 44.460938 C 263.28125 46.300781 262.984375 46.777344 263.875 46.519531 C 270.148438 44.097656 272.804688 41.765625 274.378906 40.019531 C 274.953125 40.277344 275.644531 40.433594 276.46875 40.441406 C 282.460938 40.527344 282.71875 32.875 280.6875 32.402344 Z M 264.148438 27.40625 C 263.742188 27.515625 265.148438 28.488281 266.871094 29.304688 C 265.171875 29.113281 263.425781 30.078125 263.582031 30.496094 C 263.847656 30.695312 268.816406 30.289062 268.835938 30.0625 C 269.050781 29.832031 266.910156 26.660156 264.148438 27.40625 Z M 291.472656 29.230469 C 291.867188 29.371094 290.390625 30.222656 288.59375 30.886719 C 290.308594 30.84375 291.964844 31.960938 291.773438 32.359375 C 291.492188 32.535156 286.570312 31.703125 286.582031 31.476562 C 286.378906 31.226562 288.785156 28.25 291.472656 29.230469 Z M 293.429688 34.898438 C 293.480469 34.949219 293.523438 34.992188 293.539062 35.015625 C 293.671875 35.230469 294.644531 36.753906 295.3125 38.554688 C 296.136719 40.800781 296.210938 42.605469 296.300781 44.519531 C 296.453125 47.816406 295.527344 50.480469 294.503906 52.070312 L 295.601562 52.070312 C 296.320312 50.695312 297.007812 48.425781 297.027344 44.746094 C 297.066406 37.996094 294.039062 34.667969 294.039062 34.667969 C 294.628906 34.175781 295.121094 33.582031 295.496094 32.910156 C 296.292969 31.46875 296.476562 29.804688 296.019531 28.222656 C 295.5625 26.640625 294.519531 25.335938 293.074219 24.542969 C 291.632812 23.746094 289.96875 23.5625 288.386719 24.019531 C 286.804688 24.476562 285.5 25.527344 284.699219 26.96875 C 284.574219 27.191406 284.457031 27.417969 284.375 27.640625 C 284.332031 27.632812 284.292969 27.617188 284.242188 27.609375 C 278.707031 25.726562 273.128906 26.585938 271.816406 26.824219 C 271.804688 26.808594 271.804688 26.800781 271.796875 26.785156 C 270.855469 23.511719 267.429688 21.632812 264.15625 22.570312 C 262.574219 23.03125 261.269531 24.078125 260.46875 25.519531 C 259.671875 26.957031 259.488281 28.625 259.945312 30.203125 C 260.144531 30.871094 260.4375 31.496094 260.835938 32.050781 C 259.652344 32.867188 256.882812 35.332031 255.898438 40.785156 C 255.09375 45.261719 256.148438 48.515625 257.222656 50.265625 C 257.714844 51.0625 258.207031 51.644531 258.65625 52.085938 L 259.789062 52.085938 C 259.3125 51.695312 258.488281 50.839844 257.796875 49.722656 C 256.765625 48.074219 255.851562 45.160156 256.632812 40.867188 C 257.65625 35.222656 260.445312 33.007812 261.367188 32.425781 C 261.71875 32.636719 262.078125 32.917969 262.152344 32.816406 C 262.234375 32.710938 261.535156 31.9375 261.445312 31.84375 C 261.035156 31.296875 260.726562 30.6875 260.535156 30.03125 C 259.6875 27.082031 261.476562 23.953125 264.414062 23.105469 C 265.046875 22.929688 265.714844 22.855469 266.328125 22.886719 C 268.617188 23.03125 270.558594 24.628906 271.222656 26.941406 C 271.25 27.042969 271.296875 27.242188 271.296875 27.242188 C 271.339844 27.40625 271.507812 27.507812 271.664062 27.464844 C 271.730469 27.449219 278.347656 26.066406 284.074219 28.171875 C 284.089844 28.171875 284.101562 28.183594 284.117188 28.183594 C 284.183594 28.199219 284.25 28.222656 284.324219 28.25 C 284.375 28.265625 284.425781 28.289062 284.484375 28.296875 C 284.632812 28.339844 284.800781 28.257812 284.847656 28.105469 C 284.941406 27.839844 285.074219 27.542969 285.242188 27.25 C 285.964844 25.941406 286.964844 25.035156 288.386719 24.628906 C 289.816406 24.210938 291.464844 24.378906 292.765625 25.09375 C 294.0625 25.808594 294.855469 26.851562 295.269531 28.273438 C 295.6875 29.695312 295.6875 31.328125 294.980469 32.617188 C 294.644531 33.226562 294.203125 33.757812 293.671875 34.199219 C 293.648438 34.214844 292.847656 34.808594 292.707031 35.015625 C 292.625 35.140625 293.039062 35.03125 293.429688 34.898438 Z M 293.429688 34.898438 " fill-opacity="1" fill-rule="nonzero"/></g><path fill="#e1adcd" d="M 269.46875 33.226562 C 269.417969 33.851562 268.277344 34.273438 266.910156 34.175781 C 265.546875 34.074219 264.480469 33.484375 264.53125 32.851562 C 264.582031 32.226562 265.722656 31.804688 267.085938 31.902344 C 268.453125 32.003906 269.515625 32.601562 269.46875 33.226562 Z M 287.347656 33.433594 C 285.980469 33.335938 284.839844 33.757812 284.789062 34.382812 C 284.742188 35.007812 285.816406 35.597656 287.171875 35.707031 C 288.535156 35.804688 289.675781 35.382812 289.726562 34.757812 C 289.777344 34.125 288.710938 33.535156 287.347656 33.433594 Z M 274.734375 39.519531 C 274.734375 39.519531 275.859375 40.042969 276.992188 39.902344 C 280.671875 39.453125 281.296875 36.398438 281.296875 35.382812 C 280.121094 35.140625 277.625 34.890625 274.785156 36.207031 C 276.441406 37.289062 274.734375 39.519531 274.734375 39.519531 Z M 260.609375 22.207031 C 260.71875 22.324219 260.894531 22.347656 261.027344 22.265625 C 261.175781 22.164062 261.226562 21.964844 261.128906 21.816406 L 258.457031 17.585938 C 258.429688 17.554688 258.40625 17.511719 258.371094 17.476562 C 258.089844 17.171875 257.605469 17.144531 257.296875 17.429688 C 256.992188 17.710938 256.964844 18.195312 257.25 18.5 Z M 261.644531 21.421875 C 261.683594 21.582031 261.84375 21.691406 262.007812 21.664062 C 262.191406 21.640625 262.308594 21.472656 262.285156 21.289062 L 261.859375 18.367188 C 261.859375 18.351562 261.851562 18.328125 261.851562 18.308594 C 261.777344 18.042969 261.5 17.886719 261.234375 17.953125 C 260.96875 18.027344 260.8125 18.300781 260.878906 18.570312 Z M 260.261719 23.078125 C 260.351562 22.929688 260.3125 22.722656 260.152344 22.628906 L 257.324219 20.875 C 257.308594 20.867188 257.296875 20.859375 257.28125 20.847656 C 257.039062 20.734375 256.75 20.832031 256.625 21.074219 C 256.507812 21.316406 256.609375 21.605469 256.847656 21.730469 L 259.835938 23.203125 C 259.988281 23.269531 260.179688 23.222656 260.261719 23.078125 Z M 260.261719 23.078125 " fill-opacity="1" fill-rule="nonzero"/><path fill="#0e4b11" d="M 260.136719 23.453125 C 260.054688 23.453125 259.910156 23.429688 259.835938 23.386719 L 256.816406 21.957031 C 256.449219 21.773438 256.308594 21.339844 256.484375 20.972656 C 256.566406 20.800781 256.714844 20.667969 256.90625 20.609375 C 257.089844 20.542969 257.289062 20.558594 257.464844 20.640625 C 257.488281 20.648438 257.507812 20.667969 257.523438 20.675781 L 260.351562 22.503906 C 260.621094 22.671875 260.710938 22.953125 260.542969 23.222656 C 260.429688 23.394531 260.328125 23.453125 260.136719 23.453125 Z M 257.140625 21.058594 C 257.117188 21.058594 257.089844 21.066406 257.058594 21.074219 C 257 21.097656 256.941406 21.140625 256.914062 21.199219 C 256.855469 21.324219 256.90625 21.464844 257.023438 21.53125 L 260.09375 23.039062 C 260.136719 23.054688 260.179688 23.054688 260.195312 23.011719 C 260.210938 22.972656 260.203125 22.929688 260.160156 22.90625 L 257.265625 21.089844 C 257.257812 21.089844 257.25 21.082031 257.242188 21.082031 C 257.214844 21.066406 257.171875 21.058594 257.140625 21.058594 Z M 260.9375 22.546875 C 260.777344 22.546875 260.652344 22.472656 260.542969 22.355469 L 257.140625 18.695312 C 256.765625 18.285156 256.800781 17.644531 257.207031 17.277344 C 257.613281 16.902344 258.253906 16.9375 258.621094 17.34375 C 258.671875 17.394531 258.707031 17.445312 258.722656 17.476562 L 261.359375 21.78125 C 261.527344 22.046875 261.46875 22.347656 261.242188 22.472656 C 261.152344 22.53125 261.035156 22.546875 260.9375 22.546875 Z M 257.882812 17.496094 C 257.757812 17.496094 257.632812 17.535156 257.53125 17.628906 C 257.324219 17.820312 257.308594 18.144531 257.5 18.359375 L 260.886719 22.046875 C 260.910156 22.082031 260.945312 22.089844 260.96875 22.074219 C 261.011719 22.046875 261.003906 22.015625 260.976562 21.972656 L 258.3125 17.726562 C 258.296875 17.703125 258.28125 17.679688 258.265625 17.652344 C 258.15625 17.554688 258.023438 17.496094 257.882812 17.496094 Z M 262.027344 21.921875 C 261.769531 21.921875 261.625 21.75 261.558594 21.5 L 260.710938 18.652344 C 260.601562 18.253906 260.84375 17.84375 261.234375 17.734375 C 261.636719 17.628906 262.042969 17.871094 262.152344 18.261719 C 262.160156 18.285156 262.167969 18.320312 262.167969 18.34375 L 262.507812 21.265625 C 262.535156 21.414062 262.492188 21.582031 262.410156 21.714844 C 262.34375 21.839844 262.257812 21.898438 262.109375 21.921875 C 262.085938 21.921875 262.058594 21.921875 262.027344 21.921875 Z M 261.433594 18.195312 C 261.410156 18.195312 261.394531 18.195312 261.367188 18.203125 C 261.300781 18.21875 261.242188 18.261719 261.210938 18.328125 C 261.175781 18.386719 261.167969 18.460938 261.1875 18.527344 C 261.1875 18.527344 261.960938 21.363281 261.960938 21.382812 C 261.96875 21.421875 262.007812 21.449219 262.042969 21.441406 C 262.078125 21.433594 262.085938 21.421875 262.09375 21.414062 C 262.101562 21.40625 262.109375 21.382812 262.101562 21.355469 L 261.691406 18.425781 C 261.691406 18.417969 261.691406 18.410156 261.683594 18.394531 C 261.652344 18.277344 261.550781 18.195312 261.433594 18.195312 Z M 261.433594 18.195312 " fill-opacity="1" fill-rule="nonzero"/></svg>