<svg xmlns="http://www.w3.org/2000/svg" xmlns:xlink="http://www.w3.org/1999/xlink" width="500" zoomAndPan="magnify" viewBox="0 0 375 374.999991" height="500" preserveAspectRatio="xMidYMid meet" version="1.0"><defs><filter x="0%" y="0%" width="100%" height="100%" id="3f723a9898"><feColorMatrix values="0 0 0 0 1 0 0 0 0 1 0 0 0 0 1 0 0 0 1 0" color-interpolation-filters="sRGB"/></filter><clipPath id="47ab9d47f5"><path d="M 14 89 L 355 89 L 355 334.105469 L 14 334.105469 Z M 14 89 " clip-rule="nonzero"/></clipPath><clipPath id="152971a30d"><path d="M 42.554688 334.140625 L 339.792969 334.140625 C 339.792969 334.140625 352.207031 318.394531 353.804688 293.492188 C 356.09375 258.253906 348.878906 232.726562 348.878906 232.726562 C 343.261719 205.046875 330.84375 191.660156 330.84375 191.660156 C 330.84375 191.660156 330.289062 191.105469 329.386719 190.132812 C 333.269531 187.21875 336.808594 183.683594 339.792969 179.589844 C 339.792969 179.589844 348.601562 157.878906 348.53125 150.179688 C 348.460938 142.824219 339.792969 122.152344 339.792969 122.152344 C 335.699219 116.464844 330.289062 111.609375 323.769531 108.003906 C 300.113281 94.960938 270.285156 103.5625 257.246094 127.285156 C 255.925781 129.714844 254.679688 132.351562 253.777344 134.847656 C 252.597656 134.5 251.554688 134.085938 250.445312 133.875 C 197.867188 115.910156 145.492188 127.980469 145.492188 127.980469 C 145.492188 127.980469 145.078125 126.316406 144.800781 125.34375 C 137.308594 99.332031 110.117188 84.417969 84.171875 91.910156 C 58.160156 99.402344 43.246094 126.59375 50.738281 152.535156 C 52.542969 158.847656 55.523438 164.46875 59.410156 169.324219 C 49.90625 175.21875 24.933594 194.921875 17.09375 242.089844 C 6.550781 304.867188 36.863281 330.046875 42.554688 334.140625 Z M 250.792969 290.714844 C 247.324219 299.664062 245.660156 296.058594 245.3125 290.371094 C 244.964844 284.75 252.113281 287.316406 250.792969 290.714844 Z M 250.792969 290.714844 " clip-rule="nonzero"/></clipPath><linearGradient x1="247.74001" gradientTransform="matrix(0.693673, 0, 0, -0.693673, 12.655446, 234.650951)" y1="-143.373321" x2="247.74001" gradientUnits="userSpaceOnUse" y2="216.576004" id="e16868b5ce"><stop stop-opacity="1" stop-color="rgb(61.198425%, 81.5979%, 24.699402%)" offset="0"/><stop stop-opacity="1" stop-color="rgb(61.077881%, 81.535339%, 24.729919%)" offset="0.0078125"/><stop stop-opacity="1" stop-color="rgb(60.836792%, 81.410217%, 24.79248%)" offset="0.015625"/><stop stop-opacity="1" stop-color="rgb(60.594177%, 81.285095%, 24.855042%)" offset="0.0234375"/><stop stop-opacity="1" stop-color="rgb(60.353088%, 81.159973%, 24.917603%)" offset="0.03125"/><stop stop-opacity="1" stop-color="rgb(60.112%, 81.034851%, 24.978638%)" offset="0.0390625"/><stop stop-opacity="1" stop-color="rgb(59.870911%, 80.908203%, 25.041199%)" offset="0.046875"/><stop stop-opacity="1" stop-color="rgb(59.629822%, 80.783081%, 25.10376%)" offset="0.0546875"/><stop stop-opacity="1" stop-color="rgb(59.388733%, 80.657959%, 25.166321%)" offset="0.0625"/><stop stop-opacity="1" stop-color="rgb(59.147644%, 80.532837%, 25.228882%)" offset="0.0703125"/><stop stop-opacity="1" stop-color="rgb(58.906555%, 80.407715%, 25.291443%)" offset="0.078125"/><stop stop-opacity="1" stop-color="rgb(58.665466%, 80.281067%, 25.352478%)" offset="0.0859375"/><stop stop-opacity="1" stop-color="rgb(58.424377%, 80.155945%, 25.415039%)" offset="0.09375"/><stop stop-opacity="1" stop-color="rgb(58.183289%, 80.030823%, 25.4776%)" offset="0.101562"/><stop stop-opacity="1" stop-color="rgb(57.9422%, 79.905701%, 25.540161%)" offset="0.109375"/><stop stop-opacity="1" stop-color="rgb(57.701111%, 79.780579%, 25.602722%)" offset="0.117187"/><stop stop-opacity="1" stop-color="rgb(57.458496%, 79.655457%, 25.665283%)" offset="0.125"/><stop stop-opacity="1" stop-color="rgb(57.217407%, 79.528809%, 25.726318%)" offset="0.132812"/><stop stop-opacity="1" stop-color="rgb(56.976318%, 79.403687%, 25.788879%)" offset="0.140625"/><stop stop-opacity="1" stop-color="rgb(56.735229%, 79.278564%, 25.85144%)" offset="0.148437"/><stop stop-opacity="1" stop-color="rgb(56.494141%, 79.153442%, 25.914001%)" offset="0.15625"/><stop stop-opacity="1" stop-color="rgb(56.253052%, 79.02832%, 25.976562%)" offset="0.164062"/><stop stop-opacity="1" stop-color="rgb(56.011963%, 78.901672%, 26.039124%)" offset="0.171875"/><stop stop-opacity="1" stop-color="rgb(55.770874%, 78.77655%, 26.100159%)" offset="0.179687"/><stop stop-opacity="1" stop-color="rgb(55.529785%, 78.651428%, 26.16272%)" offset="0.1875"/><stop stop-opacity="1" stop-color="rgb(55.288696%, 78.526306%, 26.225281%)" offset="0.195312"/><stop stop-opacity="1" stop-color="rgb(55.047607%, 78.401184%, 26.287842%)" offset="0.203125"/><stop stop-opacity="1" stop-color="rgb(54.806519%, 78.276062%, 26.350403%)" offset="0.210937"/><stop stop-opacity="1" stop-color="rgb(54.563904%, 78.149414%, 26.411438%)" offset="0.21875"/><stop stop-opacity="1" stop-color="rgb(54.322815%, 78.024292%, 26.473999%)" offset="0.226562"/><stop stop-opacity="1" stop-color="rgb(54.081726%, 77.89917%, 26.53656%)" offset="0.234375"/><stop stop-opacity="1" stop-color="rgb(53.840637%, 77.774048%, 26.599121%)" offset="0.242187"/><stop stop-opacity="1" stop-color="rgb(53.599548%, 77.648926%, 26.661682%)" offset="0.25"/><stop stop-opacity="1" stop-color="rgb(53.358459%, 77.523804%, 26.724243%)" offset="0.257813"/><stop stop-opacity="1" stop-color="rgb(53.117371%, 77.397156%, 26.785278%)" offset="0.265625"/><stop stop-opacity="1" stop-color="rgb(52.876282%, 77.272034%, 26.847839%)" offset="0.273438"/><stop stop-opacity="1" stop-color="rgb(52.635193%, 77.146912%, 26.9104%)" offset="0.28125"/><stop stop-opacity="1" stop-color="rgb(52.394104%, 77.02179%, 26.972961%)" offset="0.289063"/><stop stop-opacity="1" stop-color="rgb(52.153015%, 76.896667%, 27.035522%)" offset="0.296875"/><stop stop-opacity="1" stop-color="rgb(51.911926%, 76.77002%, 27.098083%)" offset="0.304688"/><stop stop-opacity="1" stop-color="rgb(51.670837%, 76.644897%, 27.159119%)" offset="0.3125"/><stop stop-opacity="1" stop-color="rgb(51.428223%, 76.519775%, 27.22168%)" offset="0.320313"/><stop stop-opacity="1" stop-color="rgb(51.187134%, 76.394653%, 27.284241%)" offset="0.328125"/><stop stop-opacity="1" stop-color="rgb(50.946045%, 76.269531%, 27.346802%)" offset="0.335938"/><stop stop-opacity="1" stop-color="rgb(50.704956%, 76.144409%, 27.409363%)" offset="0.34375"/><stop stop-opacity="1" stop-color="rgb(50.463867%, 76.017761%, 27.471924%)" offset="0.351562"/><stop stop-opacity="1" stop-color="rgb(50.222778%, 75.892639%, 27.532959%)" offset="0.359375"/><stop stop-opacity="1" stop-color="rgb(49.981689%, 75.767517%, 27.59552%)" offset="0.367188"/><stop stop-opacity="1" stop-color="rgb(49.740601%, 75.642395%, 27.658081%)" offset="0.375"/><stop stop-opacity="1" stop-color="rgb(49.499512%, 75.517273%, 27.720642%)" offset="0.382812"/><stop stop-opacity="1" stop-color="rgb(49.258423%, 75.390625%, 27.783203%)" offset="0.390625"/><stop stop-opacity="1" stop-color="rgb(49.017334%, 75.265503%, 27.845764%)" offset="0.398438"/><stop stop-opacity="1" stop-color="rgb(48.776245%, 75.140381%, 27.906799%)" offset="0.40625"/><stop stop-opacity="1" stop-color="rgb(48.535156%, 75.015259%, 27.96936%)" offset="0.414062"/><stop stop-opacity="1" stop-color="rgb(48.292542%, 74.890137%, 28.031921%)" offset="0.421875"/><stop stop-opacity="1" stop-color="rgb(48.051453%, 74.765015%, 28.094482%)" offset="0.429687"/><stop stop-opacity="1" stop-color="rgb(47.810364%, 74.638367%, 28.157043%)" offset="0.4375"/><stop stop-opacity="1" stop-color="rgb(47.569275%, 74.513245%, 28.218079%)" offset="0.445312"/><stop stop-opacity="1" stop-color="rgb(47.328186%, 74.388123%, 28.28064%)" offset="0.453125"/><stop stop-opacity="1" stop-color="rgb(47.087097%, 74.263%, 28.343201%)" offset="0.460937"/><stop stop-opacity="1" stop-color="rgb(46.846008%, 74.137878%, 28.405762%)" offset="0.46875"/><stop stop-opacity="1" stop-color="rgb(46.604919%, 74.01123%, 28.468323%)" offset="0.476562"/><stop stop-opacity="1" stop-color="rgb(46.363831%, 73.886108%, 28.530884%)" offset="0.484375"/><stop stop-opacity="1" stop-color="rgb(46.122742%, 73.760986%, 28.591919%)" offset="0.492187"/><stop stop-opacity="1" stop-color="rgb(45.881653%, 73.635864%, 28.65448%)" offset="0.5"/><stop stop-opacity="1" stop-color="rgb(45.640564%, 73.510742%, 28.717041%)" offset="0.507812"/><stop stop-opacity="1" stop-color="rgb(45.397949%, 73.38562%, 28.779602%)" offset="0.515625"/><stop stop-opacity="1" stop-color="rgb(45.15686%, 73.258972%, 28.842163%)" offset="0.523438"/><stop stop-opacity="1" stop-color="rgb(44.915771%, 73.13385%, 28.904724%)" offset="0.53125"/><stop stop-opacity="1" stop-color="rgb(44.674683%, 73.008728%, 28.965759%)" offset="0.539062"/><stop stop-opacity="1" stop-color="rgb(44.433594%, 72.883606%, 29.02832%)" offset="0.546875"/><stop stop-opacity="1" stop-color="rgb(44.192505%, 72.758484%, 29.090881%)" offset="0.554688"/><stop stop-opacity="1" stop-color="rgb(43.951416%, 72.631836%, 29.153442%)" offset="0.5625"/><stop stop-opacity="1" stop-color="rgb(43.710327%, 72.506714%, 29.216003%)" offset="0.570313"/><stop stop-opacity="1" stop-color="rgb(43.469238%, 72.381592%, 29.278564%)" offset="0.578125"/><stop stop-opacity="1" stop-color="rgb(43.228149%, 72.25647%, 29.3396%)" offset="0.585938"/><stop stop-opacity="1" stop-color="rgb(42.987061%, 72.131348%, 29.402161%)" offset="0.59375"/><stop stop-opacity="1" stop-color="rgb(42.745972%, 72.006226%, 29.464722%)" offset="0.601563"/><stop stop-opacity="1" stop-color="rgb(42.504883%, 71.879578%, 29.527283%)" offset="0.609375"/><stop stop-opacity="1" stop-color="rgb(42.262268%, 71.754456%, 29.589844%)" offset="0.617188"/><stop stop-opacity="1" stop-color="rgb(42.021179%, 71.629333%, 29.652405%)" offset="0.625"/><stop stop-opacity="1" stop-color="rgb(41.78009%, 71.504211%, 29.71344%)" offset="0.632813"/><stop stop-opacity="1" stop-color="rgb(41.539001%, 71.379089%, 29.776001%)" offset="0.640625"/><stop stop-opacity="1" stop-color="rgb(41.297913%, 71.252441%, 29.838562%)" offset="0.648438"/><stop stop-opacity="1" stop-color="rgb(41.056824%, 71.127319%, 29.901123%)" offset="0.65625"/><stop stop-opacity="1" stop-color="rgb(40.815735%, 71.002197%, 29.963684%)" offset="0.664063"/><stop stop-opacity="1" stop-color="rgb(40.574646%, 70.877075%, 30.026245%)" offset="0.671875"/><stop stop-opacity="1" stop-color="rgb(40.333557%, 70.751953%, 30.08728%)" offset="0.679688"/><stop stop-opacity="1" stop-color="rgb(40.092468%, 70.626831%, 30.149841%)" offset="0.6875"/><stop stop-opacity="1" stop-color="rgb(39.851379%, 70.500183%, 30.212402%)" offset="0.695312"/><stop stop-opacity="1" stop-color="rgb(39.610291%, 70.375061%, 30.274963%)" offset="0.703125"/><stop stop-opacity="1" stop-color="rgb(39.369202%, 70.249939%, 30.337524%)" offset="0.710938"/><stop stop-opacity="1" stop-color="rgb(39.126587%, 70.124817%, 30.39856%)" offset="0.71875"/><stop stop-opacity="1" stop-color="rgb(38.885498%, 69.999695%, 30.461121%)" offset="0.726562"/><stop stop-opacity="1" stop-color="rgb(38.644409%, 69.874573%, 30.523682%)" offset="0.734375"/><stop stop-opacity="1" stop-color="rgb(38.40332%, 69.747925%, 30.586243%)" offset="0.742188"/><stop stop-opacity="1" stop-color="rgb(38.162231%, 69.622803%, 30.648804%)" offset="0.75"/><stop stop-opacity="1" stop-color="rgb(37.921143%, 69.497681%, 30.711365%)" offset="0.757812"/><stop stop-opacity="1" stop-color="rgb(37.680054%, 69.372559%, 30.7724%)" offset="0.765625"/><stop stop-opacity="1" stop-color="rgb(37.438965%, 69.247437%, 30.834961%)" offset="0.773438"/><stop stop-opacity="1" stop-color="rgb(37.197876%, 69.120789%, 30.897522%)" offset="0.78125"/><stop stop-opacity="1" stop-color="rgb(36.956787%, 68.995667%, 30.960083%)" offset="0.789062"/><stop stop-opacity="1" stop-color="rgb(36.715698%, 68.870544%, 31.022644%)" offset="0.796875"/><stop stop-opacity="1" stop-color="rgb(36.474609%, 68.745422%, 31.085205%)" offset="0.804688"/><stop stop-opacity="1" stop-color="rgb(36.231995%, 68.6203%, 31.14624%)" offset="0.8125"/><stop stop-opacity="1" stop-color="rgb(35.990906%, 68.495178%, 31.208801%)" offset="0.820312"/><stop stop-opacity="1" stop-color="rgb(35.749817%, 68.36853%, 31.271362%)" offset="0.828125"/><stop stop-opacity="1" stop-color="rgb(35.508728%, 68.243408%, 31.333923%)" offset="0.835937"/><stop stop-opacity="1" stop-color="rgb(35.267639%, 68.118286%, 31.396484%)" offset="0.84375"/><stop stop-opacity="1" stop-color="rgb(35.02655%, 67.993164%, 31.459045%)" offset="0.851562"/><stop stop-opacity="1" stop-color="rgb(34.785461%, 67.868042%, 31.520081%)" offset="0.859375"/><stop stop-opacity="1" stop-color="rgb(34.544373%, 67.741394%, 31.582642%)" offset="0.867187"/><stop stop-opacity="1" stop-color="rgb(34.303284%, 67.616272%, 31.645203%)" offset="0.875"/><stop stop-opacity="1" stop-color="rgb(34.062195%, 67.49115%, 31.707764%)" offset="0.882812"/><stop stop-opacity="1" stop-color="rgb(33.821106%, 67.366028%, 31.770325%)" offset="0.890625"/><stop stop-opacity="1" stop-color="rgb(33.580017%, 67.240906%, 31.832886%)" offset="0.898437"/><stop stop-opacity="1" stop-color="rgb(33.338928%, 67.115784%, 31.893921%)" offset="0.90625"/><stop stop-opacity="1" stop-color="rgb(33.096313%, 66.989136%, 31.956482%)" offset="0.914062"/><stop stop-opacity="1" stop-color="rgb(32.855225%, 66.864014%, 32.019043%)" offset="0.921875"/><stop stop-opacity="1" stop-color="rgb(32.614136%, 66.738892%, 32.081604%)" offset="0.929687"/><stop stop-opacity="1" stop-color="rgb(32.373047%, 66.61377%, 32.144165%)" offset="0.9375"/><stop stop-opacity="1" stop-color="rgb(32.131958%, 66.488647%, 32.206726%)" offset="0.945312"/><stop stop-opacity="1" stop-color="rgb(31.890869%, 66.362%, 32.267761%)" offset="0.953125"/><stop stop-opacity="1" stop-color="rgb(31.64978%, 66.236877%, 32.330322%)" offset="0.960938"/><stop stop-opacity="1" stop-color="rgb(31.408691%, 66.111755%, 32.392883%)" offset="0.96875"/><stop stop-opacity="1" stop-color="rgb(31.143188%, 65.974426%, 32.461548%)" offset="1"/></linearGradient><clipPath id="12afbaaa16"><path d="M 77 216 L 290 216 L 290 334.105469 L 77 334.105469 Z M 77 216 " clip-rule="nonzero"/></clipPath><clipPath id="3bcc7f38af"><path d="M 14 148 L 354 148 L 354 334.105469 L 14 334.105469 Z M 14 148 " clip-rule="nonzero"/></clipPath><mask id="b348b3d1dc"><g filter="url(#3f723a9898)"><rect x="-37.5" width="450" fill="#000000" y="-37.499999" height="449.999989" fill-opacity="0.5"/></g></mask><clipPath id="22754cd824"><path d="M 1 1 L 340 1 L 340 186.105469 L 1 186.105469 Z M 1 1 " clip-rule="nonzero"/></clipPath><clipPath id="cc2f59aa6d"><rect x="0" width="340" y="0" height="187"/></clipPath><clipPath id="4f23a2c832"><path d="M 18 256 L 355 256 L 355 334.105469 L 18 334.105469 Z M 18 256 " clip-rule="nonzero"/></clipPath><clipPath id="a49b8abfc8"><path d="M 12 86 L 358 86 L 358 334.105469 L 12 334.105469 Z M 12 86 " clip-rule="nonzero"/></clipPath></defs><g clip-path="url(#47ab9d47f5)"><g clip-path="url(#152971a30d)"><path fill="url(#e16868b5ce)" d="M 6.550781 334.105469 L 6.550781 84.417969 L 356.09375 84.417969 L 356.09375 334.105469 Z M 6.550781 334.105469 " fill-rule="nonzero"/></g></g><path fill="#ffffff" d="M 315.375 107.378906 C 315.375 107.378906 277.429688 97.320312 259.394531 145.183594 C 243.511719 138.457031 216.59375 128.328125 180.175781 126.664062 C 186.976562 123.195312 226.375 124.441406 254.957031 134.222656 C 260.851562 123.125 279.164062 91.285156 315.375 107.378906 Z M 52.957031 158.640625 C 45.742188 101.136719 103.320312 91.492188 103.320312 91.492188 C 41.652344 86.5 45.675781 153.855469 52.957031 158.640625 Z M 52.957031 158.640625 " fill-opacity="1" fill-rule="nonzero"/><g clip-path="url(#12afbaaa16)"><path fill="#ffffff" d="M 289.152344 334.140625 L 77.375 334.140625 C 77.167969 327.132812 77.375 307.019531 84.449219 285.515625 C 106.71875 276.84375 167.136719 247.292969 174.628906 216.980469 C 177.886719 216.910156 188.292969 218.089844 191.761719 218.226562 C 288.597656 222.667969 292.136719 300.636719 289.152344 334.140625 Z M 189.125 222.113281 C 186.628906 217.8125 181.703125 231.546875 189.125 229.535156 C 196.546875 227.523438 191.625 226.414062 189.125 222.113281 Z M 189.125 222.113281 " fill-opacity="1" fill-rule="nonzero"/></g><g clip-path="url(#3bcc7f38af)"><g mask="url(#b348b3d1dc)"><g transform="matrix(1, 0, 0, 1, 14, 148)"><g clip-path="url(#cc2f59aa6d)"><g clip-path="url(#22754cd824)"><path fill="#4fa853" d="M 6.769531 151.179688 C 5.800781 150.070312 5.800781 145.628906 4.828125 144.449219 C 4.621094 143.964844 4.414062 143.269531 4.273438 142.507812 C -4.675781 110.738281 7.8125 87.292969 7.8125 87.292969 C 7.8125 87.292969 23.628906 176.429688 139.679688 177.332031 C 148.488281 177.121094 157.851562 176.636719 167.773438 175.804688 C 288.265625 165.46875 299.777344 54.898438 297.074219 43.796875 C 313.722656 33.949219 324.195312 15.289062 331.480469 1.207031 C 331.480469 1.207031 338.972656 14.25 325.722656 29.71875 C 321.558594 34.574219 318.855469 39.914062 315.527344 42.410156 C 318.785156 45.671875 326.070312 52.398438 329.816406 65.023438 C 354.441406 148.195312 325.792969 186.140625 325.792969 186.140625 L 25.292969 186.140625 C 15.09375 174 9.40625 161.585938 6.769531 151.179688 Z M 169.578125 63.984375 C 169.578125 63.984375 165.761719 55.660156 142.453125 74.179688 C 119.214844 92.703125 69.894531 117.328125 59.628906 122.460938 C 49.363281 127.59375 47.558594 144.035156 64.414062 139.039062 C 81.273438 134.046875 172.90625 91.871094 169.578125 63.984375 Z M 169.578125 63.984375 " fill-opacity="1" fill-rule="nonzero"/></g></g></g></g></g><g clip-path="url(#4f23a2c832)"><path fill="#9cd03f" d="M 19.175781 256.585938 C 19.175781 256.585938 24.308594 311.25 67.316406 334.140625 C 61.835938 334.140625 47.476562 334.140625 47.476562 334.140625 C 47.476562 334.140625 11.613281 309.03125 19.175781 256.585938 Z M 350.613281 256.585938 C 350.613281 256.585938 350.683594 308.195312 315.375 334.140625 C 333.828125 334.140625 339.722656 334.140625 339.722656 334.140625 C 339.722656 334.140625 363.097656 305.144531 350.613281 256.585938 Z M 350.613281 256.585938 " fill-opacity="1" fill-rule="nonzero"/></g><g clip-path="url(#a49b8abfc8)"><path fill="#0e4b11" d="M 160.476562 97.738281 C 163.808594 91.492188 165.75 87.957031 172.199219 90.105469 C 179.34375 92.464844 174.488281 110.429688 155.207031 108.351562 C 150.835938 105.4375 157.078125 103.980469 160.476562 97.738281 Z M 244.6875 114.800781 C 249.613281 112.929688 243.855469 110.152344 241.914062 103.285156 C 240.042969 96.417969 238.933594 92.535156 232.132812 93.226562 C 224.710938 93.992188 225.472656 112.511719 244.6875 114.800781 Z M 221.730469 170.015625 C 204.664062 165.992188 211.183594 175.773438 191.066406 174.664062 C 179.34375 174.039062 179.34375 162.386719 162.558594 166.964844 C 153.886719 169.324219 147.574219 185.140625 148.683594 201.164062 C 117.46875 211.082031 73.492188 239.453125 70.230469 241.257812 C 51.988281 251.039062 67.179688 248.679688 70.230469 246.320312 C 88.128906 241.882812 161.796875 190.480469 172.0625 206.574219 C 183.644531 224.679688 138.558594 255.199219 107.621094 270.53125 C 76.679688 285.859375 74.183594 289.816406 81.605469 287.664062 C 133.910156 267.476562 156.039062 248.054688 169.148438 233.488281 C 173.933594 235.640625 179.691406 236.957031 186.558594 237.027344 C 236.503906 237.71875 238.652344 173.972656 221.730469 170.015625 Z M 83.894531 128.398438 C 80.496094 129.296875 92.21875 137.414062 106.578125 144.210938 C 92.429688 142.617188 77.859375 150.664062 79.179688 154.132812 C 81.398438 155.796875 122.8125 152.398438 122.949219 150.523438 C 124.753906 148.582031 106.925781 122.152344 83.894531 128.398438 Z M 311.628906 143.589844 C 314.890625 144.765625 302.609375 151.84375 287.628906 157.390625 C 301.917969 157.046875 315.722656 166.339844 314.125 169.671875 C 311.765625 171.128906 270.769531 164.191406 270.839844 162.316406 C 269.175781 160.238281 289.222656 135.402344 311.628906 143.589844 Z M 327.929688 190.828125 C 328.347656 191.242188 328.691406 191.589844 328.832031 191.796875 C 329.941406 193.601562 338.058594 206.296875 343.605469 221.28125 C 350.472656 240.007812 351.097656 255.0625 351.863281 271.015625 C 353.109375 298.484375 345.410156 320.683594 336.878906 333.933594 L 346.035156 333.933594 C 352 322.488281 357.757812 303.550781 357.898438 272.890625 C 358.242188 216.632812 332.992188 188.886719 332.992188 188.886719 C 337.917969 184.792969 342.011719 179.867188 345.132812 174.25 C 351.792969 162.25 353.320312 148.375 349.503906 135.195312 C 345.6875 122.015625 337.015625 111.125 324.945312 104.535156 C 312.945312 97.875 299.074219 96.347656 285.894531 100.164062 C 272.714844 103.980469 261.824219 112.71875 255.164062 124.71875 C 254.125 126.59375 253.152344 128.464844 252.457031 130.339844 C 252.113281 130.269531 251.765625 130.132812 251.347656 130.0625 C 205.21875 114.382812 158.742188 121.53125 147.78125 123.542969 C 147.714844 123.402344 147.714844 123.332031 147.644531 123.195312 C 139.804688 95.933594 111.226562 80.257812 83.964844 88.09375 C 70.785156 91.910156 59.894531 100.648438 53.234375 112.652344 C 46.574219 124.652344 45.050781 138.523438 48.863281 151.703125 C 50.53125 157.253906 52.957031 162.457031 56.289062 167.105469 C 46.4375 173.902344 23.339844 194.433594 15.152344 239.871094 C 8.425781 277.191406 17.234375 304.3125 26.183594 318.878906 C 30.273438 325.539062 34.367188 330.394531 38.113281 334.070312 L 47.546875 334.070312 C 43.59375 330.8125 36.726562 323.664062 30.96875 314.371094 C 22.367188 300.636719 14.738281 276.355469 21.257812 240.5625 C 29.789062 193.53125 53.027344 175.082031 60.726562 170.226562 C 63.640625 171.960938 66.625 174.316406 67.246094 173.484375 C 67.941406 172.582031 62.113281 166.132812 61.351562 165.371094 C 57.953125 160.792969 55.386719 155.726562 53.789062 150.246094 C 46.714844 125.691406 61.628906 99.609375 86.117188 92.535156 C 91.386719 91.078125 96.9375 90.453125 102.070312 90.730469 C 121.144531 91.910156 137.308594 105.226562 142.859375 124.511719 C 143.066406 125.34375 143.480469 127.007812 143.480469 127.007812 C 143.828125 128.398438 145.214844 129.230469 146.535156 128.882812 C 147.089844 128.742188 202.238281 117.230469 249.960938 134.777344 C 250.101562 134.777344 250.167969 134.847656 250.308594 134.847656 C 250.863281 134.988281 251.417969 135.195312 252.042969 135.402344 C 252.457031 135.542969 252.875 135.75 253.359375 135.820312 C 254.609375 136.164062 255.996094 135.472656 256.414062 134.222656 C 257.175781 132.003906 258.285156 129.507812 259.671875 127.078125 C 265.707031 116.1875 274.03125 108.628906 285.894531 105.226562 C 297.824219 101.761719 311.558594 103.148438 322.378906 109.113281 C 333.203125 115.078125 339.792969 123.75 343.261719 135.609375 C 346.730469 147.472656 346.730469 161.070312 340.832031 171.820312 C 338.058594 176.882812 334.382812 181.324219 329.941406 185 C 329.734375 185.140625 323.074219 190.0625 321.894531 191.796875 C 321.203125 192.839844 324.667969 191.9375 327.929688 190.828125 Z M 327.929688 190.828125 " fill-opacity="1" fill-rule="nonzero"/></g><path fill="#e1adcd" d="M 128.222656 176.882812 C 127.804688 182.085938 118.300781 185.625 106.925781 184.792969 C 95.550781 183.960938 86.671875 179.035156 87.085938 173.761719 C 87.503906 168.558594 97.007812 165.023438 108.382812 165.855469 C 119.757812 166.6875 128.636719 171.683594 128.222656 176.882812 Z M 277.222656 178.617188 C 265.847656 177.785156 256.34375 181.324219 255.925781 186.527344 C 255.511719 191.730469 264.457031 196.652344 275.765625 197.554688 C 287.140625 198.386719 296.644531 194.851562 297.0625 189.648438 C 297.476562 184.375 288.597656 179.453125 277.222656 178.617188 Z M 172.132812 229.328125 C 172.132812 229.328125 181.496094 233.695312 190.929688 232.515625 C 221.589844 228.769531 226.792969 203.3125 226.792969 194.851562 C 217.011719 192.839844 196.203125 190.757812 172.546875 201.71875 C 186.351562 210.734375 172.132812 229.328125 172.132812 229.328125 Z M 54.414062 85.042969 C 55.316406 86.011719 56.773438 86.222656 57.882812 85.527344 C 59.132812 84.695312 59.546875 83.03125 58.714844 81.78125 L 36.449219 46.542969 C 36.242188 46.265625 36.03125 45.917969 35.753906 45.640625 C 33.394531 43.074219 29.371094 42.867188 26.804688 45.226562 C 24.238281 47.582031 24.03125 51.605469 26.390625 54.171875 Z M 63.015625 78.523438 C 63.363281 79.839844 64.679688 80.742188 66.066406 80.535156 C 67.59375 80.324219 68.566406 78.9375 68.359375 77.410156 L 64.820312 53.0625 C 64.820312 52.925781 64.75 52.71875 64.75 52.578125 C 64.125 50.359375 61.835938 49.039062 59.617188 49.59375 C 57.398438 50.21875 56.078125 52.507812 56.632812 54.730469 Z M 51.5 92.324219 C 52.265625 91.078125 51.917969 89.34375 50.597656 88.578125 L 27.015625 73.945312 C 26.875 73.875 26.804688 73.804688 26.667969 73.734375 C 24.65625 72.765625 22.226562 73.597656 21.1875 75.609375 C 20.214844 77.621094 21.050781 80.046875 23.0625 81.089844 L 47.964844 93.367188 C 49.210938 93.921875 50.808594 93.503906 51.5 92.324219 Z M 51.5 92.324219 " fill-opacity="1" fill-rule="nonzero"/><path fill="#0e4b11" d="M 50.460938 95.449219 C 49.765625 95.449219 48.585938 95.238281 47.964844 94.890625 L 22.78125 82.960938 C 19.730469 81.433594 18.550781 77.828125 20.007812 74.777344 C 20.703125 73.320312 21.949219 72.210938 23.546875 71.722656 C 25.070312 71.167969 26.738281 71.308594 28.195312 72 C 28.402344 72.070312 28.539062 72.210938 28.679688 72.277344 L 52.265625 87.539062 C 54.484375 88.925781 55.246094 91.285156 53.859375 93.503906 C 52.886719 94.960938 52.054688 95.449219 50.460938 95.449219 Z M 25.488281 75.46875 C 25.28125 75.46875 25.070312 75.539062 24.792969 75.609375 C 24.308594 75.816406 23.824219 76.164062 23.617188 76.648438 C 23.128906 77.6875 23.546875 78.867188 24.515625 79.421875 L 50.113281 91.980469 C 50.460938 92.117188 50.808594 92.117188 50.945312 91.769531 C 51.085938 91.425781 51.015625 91.078125 50.667969 90.867188 L 26.527344 75.746094 C 26.460938 75.746094 26.390625 75.675781 26.320312 75.675781 C 26.113281 75.539062 25.765625 75.46875 25.488281 75.46875 Z M 57.121094 87.886719 C 55.800781 87.886719 54.761719 87.261719 53.859375 86.289062 L 25.488281 55.769531 C 22.367188 52.371094 22.644531 47.027344 26.042969 43.976562 C 29.441406 40.855469 34.785156 41.132812 37.835938 44.53125 C 38.253906 44.949219 38.53125 45.363281 38.667969 45.640625 L 60.65625 81.503906 C 62.046875 83.722656 61.558594 86.222656 59.6875 87.261719 C 58.921875 87.746094 57.953125 87.886719 57.121094 87.886719 Z M 31.660156 45.78125 C 30.621094 45.78125 29.582031 46.128906 28.75 46.890625 C 27.015625 48.484375 26.875 51.191406 28.472656 52.996094 L 56.703125 83.722656 C 56.910156 84 57.1875 84.070312 57.398438 83.933594 C 57.746094 83.722656 57.675781 83.445312 57.464844 83.101562 L 35.269531 47.722656 C 35.128906 47.515625 34.992188 47.304688 34.851562 47.097656 C 33.953125 46.265625 32.839844 45.78125 31.660156 45.78125 Z M 66.207031 82.683594 C 64.058594 82.683594 62.878906 81.226562 62.324219 79.144531 L 55.246094 55.421875 C 54.34375 52.09375 56.355469 48.695312 59.617188 47.792969 C 62.945312 46.890625 66.347656 48.902344 67.246094 52.164062 C 67.316406 52.371094 67.386719 52.648438 67.386719 52.855469 L 70.230469 77.203125 C 70.4375 78.453125 70.089844 79.839844 69.398438 80.949219 C 68.84375 81.988281 68.148438 82.476562 66.902344 82.683594 C 66.691406 82.683594 66.484375 82.683594 66.207031 82.683594 Z M 61.28125 51.605469 C 61.074219 51.605469 60.933594 51.605469 60.726562 51.675781 C 60.171875 51.816406 59.6875 52.164062 59.410156 52.71875 C 59.132812 53.203125 59.0625 53.828125 59.199219 54.382812 C 59.199219 54.382812 65.652344 78.035156 65.652344 78.175781 C 65.722656 78.523438 66.066406 78.730469 66.347656 78.660156 C 66.625 78.589844 66.691406 78.523438 66.761719 78.453125 C 66.832031 78.382812 66.902344 78.175781 66.832031 77.964844 L 63.433594 53.550781 C 63.433594 53.480469 63.433594 53.410156 63.363281 53.273438 C 63.085938 52.300781 62.253906 51.605469 61.28125 51.605469 Z M 61.28125 51.605469 " fill-opacity="1" fill-rule="nonzero"/></svg>